;TYPE=PLATED
;Layer: PTH_Through
;EasyEDA Pro v2.2.24.2, 2024-08-08 11:30:51
;Gerber Generator version 0.3
M48
METRIC,LZ,000.00000
;Hole size 1 = 0.30500 METRIC
T01C0.30500
;Hole size 2 = 0.80000 METRIC
T02C0.80000
;Hole size 3 = 1.04999 METRIC
T03C1.04999
;Hole size 4 = 1.10002 METRIC
T04C1.10002
%
G05
G90
T01
X36.00002Y25.00002
X37.00569Y25.9
X46.10002Y29.20019
X39.50005Y24.21483
X43.40002Y22.80002
X44.52311Y23.59999
X43.50002Y25.90002
X42.60005Y26.8
X47.50003Y22.76804
X46.25307Y23.59999
X48.74305Y23.59999
X45.40002Y22.70002
X47.50003Y20.40002
X48.70003Y21.60744
X46.30002Y21.60744
X50.50005Y23.59999
X49.60003Y22.80002
X48.60003Y30.70002
X44.40002Y44.60003
X21.50001Y22.70002
X23.69997Y22.70002
X21.50004Y26.0
X23.69999Y26.0
X21.50004Y29.3
X23.69999Y29.3
X21.50004Y32.6
X23.69999Y32.6
X21.50004Y35.9
X23.69999Y35.9
X21.50004Y39.2
X23.69999Y39.2
X21.50004Y42.5
X23.69999Y42.5
X21.50004Y45.8
X23.69999Y45.8
X48.68008Y41.00008
X45.86643Y40.30001
X46.20002Y44.8
X27.44269Y59.35737
X28.36478Y58.4469
X32.08509Y58.4469
X33.13596Y58.13598
X32.00002Y59.70004
X27.33599Y66.60006
X28.20001Y65.64692
X27.83588Y64.63501
X19.80001Y65.10004
X17.70001Y65.10004
X20.95235Y66.2226
X16.57745Y66.25238
X39.70002Y47.10003
X40.70002Y48.10003
X40.15229Y43.04779
X49.64269Y59.35731
X50.56479Y58.44684
X54.2851Y58.44684
X55.33597Y58.13592
X54.20003Y59.69998
X49.53599Y66.6
X50.40002Y65.64686
X50.03589Y64.63495
X52.47418Y58.44684
X22.60001Y21.81262
X21.58744Y20.80004
X39.20002Y38.60002
X15.25889Y75.70575
X14.30001Y71.20004
X45.70003Y42.70005
X47.34545Y40.30001
X18.80001Y65.10004
X31.78516Y74.10004
X31.80002Y75.70005
X31.7703Y72.50004
X39.42157Y75.70005
X39.40671Y74.10004
X39.39185Y72.50004
X47.04312Y75.70005
X47.02826Y74.10004
X47.0134Y72.50004
X54.66467Y75.70005
X54.64981Y74.10004
X54.63495Y72.50004
X61.03644Y68.90004
X61.02158Y67.30004
X61.00672Y65.70004
X50.53643Y70.30004
X50.52157Y68.70004
X50.50671Y67.10004
X46.43643Y66.70004
X46.42157Y65.10004
X46.40671Y63.50004
X46.43643Y57.90004
X46.42157Y56.30003
X46.40671Y54.70004
X46.29612Y50.42303
X46.28126Y48.82303
X46.2664Y47.22303
X49.88643Y50.42303
X49.87157Y48.82303
X49.85672Y47.22303
X58.751Y60.04684
X58.73614Y58.44684
X58.72128Y56.84684
X56.52574Y55.58238
X56.51088Y53.98238
X56.49602Y52.38237
X51.53643Y55.60004
X51.52157Y54.00003
X51.50671Y52.40003
X62.09294Y60.76944
X62.07808Y59.16944
X62.06322Y57.56944
X62.0198Y55.22657
X62.00494Y53.62657
X61.99009Y52.02656
X52.17813Y45.79441
X52.16327Y44.19442
X52.14841Y42.59441
X54.83643Y50.10003
X54.82157Y48.50003
X54.80672Y46.90003
X57.93643Y50.10003
X57.92158Y48.50003
X44.63643Y38.30003
X44.62157Y36.70003
X44.60671Y35.10002
X44.62157Y33.70002
X44.60671Y32.10002
X47.60003Y29.20002
X58.20003Y45.60003
X26.30001Y48.00003
X32.10002Y41.40002
X37.80002Y38.40002
X43.21488Y66.70004
X38.71488Y66.70004
X31.41487Y67.10004
X31.40002Y65.50004
X31.38516Y63.90004
X31.3703Y62.30004
X31.35544Y60.70004
X30.29487Y58.4469
X43.21488Y62.00004
X38.70002Y62.00004
X41.00002Y58.10004
X41.00002Y54.60004
X41.00002Y50.40003
X39.60002Y46.00003
X12.80001Y66.50004
X22.60001Y61.60004
X24.20001Y66.40003
X18.10001Y57.00003
X18.08515Y51.80003
X22.60001Y51.80003
X22.50001Y57.00003
X31.90002Y53.90003
X31.88516Y49.20003
X36.40002Y49.20003
X36.40002Y53.90003
X30.90002Y44.40003
X35.40002Y44.40003
X35.90002Y40.40003
X13.20001Y57.10004
X13.20001Y61.80004
X13.20001Y52.00003
X7.2Y62.30004
X7.18514Y57.60004
X7.2Y52.50003
X7.18514Y47.80003
X1.9Y72.50005
X1.9Y77.20005
X1.9Y62.70004
X1.9Y67.40004
X2.0Y52.80003
X2.0Y57.50004
X2.0Y43.00003
X2.0Y47.70003
X1.9Y33.10002
X1.9Y37.80003
X1.9Y23.30002
X1.9Y28.00002
X1.9Y13.00001
X1.9Y17.70002
X1.9Y3.20001
X1.9Y7.90001
X77.30004Y72.50004
X76.90004Y62.70004
X76.90004Y67.40004
X77.00004Y52.80003
X77.00004Y57.50004
X77.00004Y43.00003
X77.00004Y47.70003
X76.90004Y33.10002
X76.90004Y37.80003
X76.90004Y23.30002
X76.90004Y28.00002
X76.90004Y13.00001
X76.90004Y17.70002
X77.20004Y2.5
X76.90004Y8.3
X6.5Y2.1
X16.20001Y2.40001
X11.5Y2.40001
X26.10001Y2.50001
X21.40001Y2.50001
X35.90002Y2.50001
X31.20002Y2.50001
X45.80003Y2.40001
X41.10002Y2.40001
X55.60003Y2.40001
X50.90003Y2.40001
X65.90004Y2.40001
X61.20003Y2.40001
X71.00004Y2.40001
X10.4Y78.50005
X5.7Y78.50005
X20.20001Y78.50005
X15.50001Y78.50005
X30.10002Y78.60005
X25.40001Y78.60005
X39.90002Y78.60005
X35.20002Y78.60005
X49.80003Y78.50005
X45.10002Y78.50005
X59.60003Y78.50005
X54.90003Y78.50005
X69.90004Y78.50005
X65.20003Y78.50005
X7.15Y10.25001
X16.95001Y10.25001
X12.25001Y10.25001
X26.85001Y10.35001
X22.15001Y10.35001
X36.65002Y10.35001
X31.95002Y10.35001
X46.55003Y10.25001
X41.85002Y10.25001
X56.35003Y10.25001
X51.65003Y10.25001
X66.65004Y10.25001
X61.95003Y10.25001
X71.75004Y10.25001
X6.85Y16.45001
X16.65001Y16.45001
X11.95001Y16.45001
X26.55002Y16.55002
X21.85001Y16.55002
X36.35002Y16.55002
X31.65002Y16.55002
X46.25002Y16.45001
X41.55002Y16.45001
X56.05003Y16.45001
X51.35003Y16.45001
X66.35003Y16.45001
X61.65003Y16.45001
X71.45004Y16.45001
X77.70004Y78.40004
X72.55004Y63.00004
X72.55004Y67.70004
X72.65004Y53.10003
X72.65004Y57.80004
X67.65004Y73.20004
X67.65004Y63.40004
X67.65004Y68.10004
X67.75004Y53.50004
X67.75004Y58.20004
X62.55003Y75.20005
X34.45002Y28.30002
X30.55002Y24.60002
X26.55002Y20.20002
X34.55002Y20.90002
X41.35002Y20.90002
X56.25003Y20.90002
X50.15003Y29.00002
X51.65003Y26.60002
X52.75003Y23.50002
X61.95003Y47.70003
X64.75004Y50.80003
X62.25003Y21.20002
X41.69986Y31.10002
X42.2238Y32.92379
X44.20002Y48.40003
X44.20002Y52.80003
X44.20002Y57.30004
X20.20001Y70.00004
X27.10001Y70.00004
X33.70002Y70.00004
X40.30002Y70.00004
X8.3Y68.80004
X11.60001Y73.90004
X11.70001Y71.70004
X11.70001Y76.40004
X49.70273Y42.35721
X40.90002Y38.70004
X40.90002Y36.60004
X40.69986Y42.50024
X53.61488Y67.10004
X53.60002Y65.50004
X53.58516Y63.90004
X53.55545Y60.70004
X53.5703Y62.30004
X33.50002Y67.10004
X29.00002Y67.10004
X35.70002Y66.70004
X35.60002Y65.00004
X35.50002Y63.70004
X36.20002Y62.10003
X36.20002Y59.80003
X55.50003Y67.20004
X57.60003Y66.60004
X57.60003Y65.00004
X57.50003Y63.40003
X58.50003Y62.00003
X60.50003Y61.50003
T02
X15.85007Y73.90081
X14.34995Y73.89928
T03
X71.60004Y49.74002
X71.60004Y47.20002
X71.60004Y44.66002
X71.60004Y42.12002
X71.60004Y39.58002
X71.60004Y37.04002
X71.60004Y34.50002
X71.60004Y31.96002
X71.60004Y29.42002
X71.60004Y26.88002
X71.60004Y24.34002
X71.60004Y21.80002
X71.60004Y19.26002
T04
X8.0Y44.16002
X8.0Y41.62002
X8.0Y39.08002
X8.0Y36.54002
X8.0Y34.00002
X8.0Y31.46002
X8.0Y28.92002
X8.0Y26.38002
X8.0Y23.84002
M30