G04 Layer: DrillDrawingLayer*
G04 EasyEDA Pro v2.2.24.2, 2024-08-08 11:30:51*
G04 Gerber Generator version 0.3*
G04 Scale: 100 percent, Rotated: No, Reflected: No*
G04 Dimensions in millimeters*
G04 Leading zeros omitted, absolute positions, 3 integers and 5 decimals*
%FSLAX35Y35*%
%MOMM*%
%AMIconRect*4,1,4,0.2,-0.2,-0.2,-0.2,-0.2,0.2,0.2,0.2,0.2,-0.2,0*4,0,4,0.166667,-0.166667,0.166667,0.166667,-0.166667,0.166667,-0.166667,-0.166667,0.166667,-0.166667,0*%
%AMIconTriangle*4,1,3,-0.242567,0.171767,0.242567,0.171767,0,-0.2706,-0.242567,0.171767,0*4,0,3,-0.189767,0.1386,0,-0.1953,0.190167,0.1386,-0.189767,0.1386,0*%
%AMIconStar6*4,1,12,0.0862,0.1492,0.213233,0.123367,0.172367,0,0.213233,-0.1229,0.0862,-0.148733,0,-0.245767,-0.085767,-0.148733,-0.213267,-0.1229,-0.171933,0,-0.213267,0.1229,-0.085767,0.1492,0,0.245767,0.0862,0.1492,0*4,0,12,-0.000333,0.195333,-0.064333,0.122667,-0.169667,0.097667,-0.138333,-0.005333,-0.169667,-0.098,-0.064333,-0.122667,-0.000333,-0.195667,0.064333,-0.122667,0.169667,-0.098,0.138667,0.005,0.169667,0.098,0.064333,0.122333,-0.000333,0.195333,0*%
%ADD10IconRect*%
%ADD11C,0.44X0.373333*%
%ADD12IconTriangle*%
%ADD13IconStar6*%
G75*


G04 Drill Drawing Start*
G54D10*
G01X1434995Y7389928D03*
G01X1585007Y7390081D03*
G54D11*
G01X800000Y4162002D03*
G01X800000Y4416002D03*
G01X800000Y2892002D03*
G01X800000Y3146002D03*
G01X800000Y3400002D03*
G01X800000Y3654002D03*
G01X800000Y3908002D03*
G01X800000Y2384002D03*
G01X800000Y2638002D03*
G54D12*
G01X7160004Y1926002D03*
G01X7160004Y2180002D03*
G01X7160004Y2434002D03*
G01X7160004Y2688002D03*
G01X7160004Y2942002D03*
G01X7160004Y3196002D03*
G01X7160004Y3450002D03*
G01X7160004Y3704002D03*
G01X7160004Y3958002D03*
G01X7160004Y4212002D03*
G01X7160004Y4466002D03*
G01X7160004Y4720002D03*
G01X7160004Y4974002D03*
G54D13*
G01X190000Y320001D03*
G01X190000Y790001D03*
G01X190000Y1300001D03*
G01X190000Y1770002D03*
G01X190000Y2330002D03*
G01X190000Y2800002D03*
G01X190000Y3310002D03*
G01X190000Y3780003D03*
G01X190000Y6270004D03*
G01X190000Y6740004D03*
G01X190000Y7250005D03*
G01X190000Y7720005D03*
G01X200000Y4300003D03*
G01X200000Y4770003D03*
G01X200000Y5280003D03*
G01X200000Y5750004D03*
G01X570000Y7850005D03*
G01X650000Y210000D03*
G01X685000Y1645001D03*
G01X715000Y1025001D03*
G01X718514Y4780003D03*
G01X718514Y5760004D03*
G01X720000Y5250003D03*
G01X720000Y6230004D03*
G01X830000Y6880004D03*
G01X1040000Y7850005D03*
G01X1150000Y240001D03*
G01X1160001Y7390004D03*
G01X1170001Y7170004D03*
G01X1170001Y7640004D03*
G01X1195001Y1645001D03*
G01X1225001Y1025001D03*
G01X1280001Y6650004D03*
G01X1320001Y5200003D03*
G01X1320001Y5710004D03*
G01X1320001Y6180004D03*
G01X1430001Y7120004D03*
G01X1525889Y7570575D03*
G01X1550001Y7850005D03*
G01X1620001Y240001D03*
G01X1657745Y6625238D03*
G01X1665001Y1645001D03*
G01X1695001Y1025001D03*
G01X1770001Y6510004D03*
G01X1808515Y5180003D03*
G01X1810001Y5700003D03*
G01X1880001Y6510004D03*
G01X1980001Y6510004D03*
G01X2020001Y7000004D03*
G01X2020001Y7850005D03*
G01X2095235Y6622260D03*
G01X2140001Y250001D03*
G01X2150001Y2270002D03*
G01X2150004Y2600000D03*
G01X2150004Y2930000D03*
G01X2150004Y3260000D03*
G01X2150004Y3590000D03*
G01X2150004Y3920000D03*
G01X2150004Y4250000D03*
G01X2150004Y4580000D03*
G01X2158744Y2080004D03*
G01X2185001Y1655002D03*
G01X2215001Y1035001D03*
G01X2250001Y5700003D03*
G01X2260001Y2181262D03*
G01X2260001Y5180003D03*
G01X2260001Y6160004D03*
G01X2369997Y2270002D03*
G01X2369999Y2600000D03*
G01X2369999Y2930000D03*
G01X2369999Y3260000D03*
G01X2369999Y3590000D03*
G01X2369999Y3920000D03*
G01X2369999Y4250000D03*
G01X2369999Y4580000D03*
G01X2420001Y6640003D03*
G01X2540001Y7860005D03*
G01X2610001Y250001D03*
G01X2630001Y4800003D03*
G01X2655002Y1655002D03*
G01X2655002Y2020002D03*
G01X2685001Y1035001D03*
G01X2710001Y7000004D03*
G01X2733599Y6660006D03*
G01X2744269Y5935737D03*
G01X2783588Y6463501D03*
G01X2820001Y6564692D03*
G01X2836478Y5844690D03*
G01X2900002Y6710004D03*
G01X3010002Y7860005D03*
G01X3029487Y5844690D03*
G01X3055002Y2460002D03*
G01X3090002Y4440003D03*
G01X3120002Y250001D03*
G01X3135544Y6070004D03*
G01X3137030Y6230004D03*
G01X3138516Y6390004D03*
G01X3140002Y6550004D03*
G01X3141487Y6710004D03*
G01X3165002Y1655002D03*
G01X3177030Y7250004D03*
G01X3178516Y7410004D03*
G01X3180002Y7570005D03*
G01X3188516Y4920003D03*
G01X3190002Y5390003D03*
G01X3195002Y1035001D03*
G01X3200002Y5970004D03*
G01X3208509Y5844690D03*
G01X3210002Y4140002D03*
G01X3313596Y5813598D03*
G01X3350002Y6710004D03*
G01X3370002Y7000004D03*
G01X3445002Y2830002D03*
G01X3455002Y2090002D03*
G01X3520002Y7860005D03*
G01X3540002Y4440003D03*
G01X3550002Y6370004D03*
G01X3560002Y6500004D03*
G01X3570002Y6670004D03*
G01X3590002Y250001D03*
G01X3590002Y4040003D03*
G01X3600002Y2500002D03*
G01X3620002Y5980003D03*
G01X3620002Y6210003D03*
G01X3635002Y1655002D03*
G01X3640002Y4920003D03*
G01X3640002Y5390003D03*
G01X3665002Y1035001D03*
G01X3700569Y2590000D03*
G01X3780002Y3840002D03*
G01X3870002Y6200004D03*
G01X3871488Y6670004D03*
G01X3920002Y3860002D03*
G01X3939185Y7250004D03*
G01X3940671Y7410004D03*
G01X3942157Y7570005D03*
G01X3950005Y2421483D03*
G01X3960002Y4600003D03*
G01X3970002Y4710003D03*
G01X3990002Y7860005D03*
G01X4015229Y4304779D03*
G01X4030002Y7000004D03*
G01X4069986Y4250024D03*
G01X4070002Y4810003D03*
G01X4090002Y3660004D03*
G01X4090002Y3870004D03*
G01X4100002Y5040003D03*
G01X4100002Y5460004D03*
G01X4100002Y5810004D03*
G01X4110002Y240001D03*
G01X4135002Y2090002D03*
G01X4155002Y1645001D03*
G01X4169986Y3110002D03*
G01X4185002Y1025001D03*
G01X4222380Y3292379D03*
G01X4260005Y2680000D03*
G01X4321488Y6200004D03*
G01X4321488Y6670004D03*
G01X4340002Y2280002D03*
G01X4350002Y2590002D03*
G01X4420002Y4840003D03*
G01X4420002Y5280003D03*
G01X4420002Y5730004D03*
G01X4440002Y4460003D03*
G01X4452311Y2359999D03*
G01X4460671Y3210002D03*
G01X4460671Y3510002D03*
G01X4462157Y3370002D03*
G01X4462157Y3670003D03*
G01X4463643Y3830003D03*
G01X4510002Y7850005D03*
G01X4540002Y2270002D03*
G01X4570003Y4270005D03*
G01X4580003Y240001D03*
G01X4586643Y4030001D03*
G01X4610002Y2920019D03*
G01X4620002Y4480000D03*
G01X4625002Y1645001D03*
G01X4625307Y2359999D03*
G01X4626640Y4722303D03*
G01X4628126Y4882303D03*
G01X4629612Y5042303D03*
G01X4630002Y2160744D03*
G01X4640671Y5470004D03*
G01X4640671Y6350004D03*
G01X4642157Y5630003D03*
G01X4642157Y6510004D03*
G01X4643643Y5790004D03*
G01X4643643Y6670004D03*
G01X4655003Y1025001D03*
G01X4701340Y7250004D03*
G01X4702826Y7410004D03*
G01X4704312Y7570005D03*
G01X4734545Y4030001D03*
G01X4750003Y2040002D03*
G01X4750003Y2276804D03*
G01X4760003Y2920002D03*
G01X4860003Y3070002D03*
G01X4868008Y4100008D03*
G01X4870003Y2160744D03*
G01X4874305Y2359999D03*
G01X4953599Y6660000D03*
G01X4960003Y2280002D03*
G01X4964269Y5935731D03*
G01X4970273Y4235721D03*
G01X4980003Y7850005D03*
G01X4985672Y4722303D03*
G01X4987157Y4882303D03*
G01X4988643Y5042303D03*
G01X5003589Y6463495D03*
G01X5015003Y2900002D03*
G01X5040002Y6564686D03*
G01X5050005Y2359999D03*
G01X5050671Y6710004D03*
G01X5052157Y6870004D03*
G01X5053643Y7030004D03*
G01X5056479Y5844684D03*
G01X5090003Y240001D03*
G01X5135003Y1645001D03*
G01X5150671Y5240003D03*
G01X5152157Y5400003D03*
G01X5153643Y5560004D03*
G01X5165003Y1025001D03*
G01X5165003Y2660002D03*
G01X5214841Y4259441D03*
G01X5216327Y4419442D03*
G01X5217813Y4579441D03*
G01X5247418Y5844684D03*
G01X5275003Y2350002D03*
G01X5355545Y6070004D03*
G01X5357030Y6230004D03*
G01X5358516Y6390004D03*
G01X5360002Y6550004D03*
G01X5361488Y6710004D03*
G01X5420003Y5969998D03*
G01X5428510Y5844684D03*
G01X5463495Y7250004D03*
G01X5464981Y7410004D03*
G01X5466467Y7570005D03*
G01X5480672Y4690003D03*
G01X5482157Y4850003D03*
G01X5483643Y5010003D03*
G01X5490003Y7850005D03*
G01X5533597Y5813592D03*
G01X5550003Y6720004D03*
G01X5560003Y240001D03*
G01X5605003Y1645001D03*
G01X5625003Y2090002D03*
G01X5635003Y1025001D03*
G01X5649602Y5238237D03*
G01X5651088Y5398238D03*
G01X5652574Y5558238D03*
G01X5750003Y6340003D03*
G01X5760003Y6500004D03*
G01X5760003Y6660004D03*
G01X5792158Y4850003D03*
G01X5793643Y5010003D03*
G01X5820003Y4560003D03*
G01X5850003Y6200003D03*
G01X5872128Y5684684D03*
G01X5873614Y5844684D03*
G01X5875100Y6004684D03*
G01X5960003Y7850005D03*
G01X6050003Y6150003D03*
G01X6100672Y6570004D03*
G01X6102158Y6730004D03*
G01X6103644Y6890004D03*
G01X6120003Y240001D03*
G01X6165003Y1645001D03*
G01X6195003Y1025001D03*
G01X6195003Y4770003D03*
G01X6199009Y5202656D03*
G01X6200494Y5362657D03*
G01X6201980Y5522657D03*
G01X6206322Y5756944D03*
G01X6207808Y5916944D03*
G01X6209294Y6076944D03*
G01X6225003Y2120002D03*
G01X6255003Y7520005D03*
G01X6475004Y5080003D03*
G01X6520003Y7850005D03*
G01X6590004Y240001D03*
G01X6635003Y1645001D03*
G01X6665004Y1025001D03*
G01X6765004Y6340004D03*
G01X6765004Y6810004D03*
G01X6765004Y7320004D03*
G01X6775004Y5350004D03*
G01X6775004Y5820004D03*
G01X6990004Y7850005D03*
G01X7100004Y240001D03*
G01X7145004Y1645001D03*
G01X7175004Y1025001D03*
G01X7255004Y6300004D03*
G01X7255004Y6770004D03*
G01X7265004Y5310003D03*
G01X7265004Y5780004D03*
G01X7690004Y830000D03*
G01X7690004Y1300001D03*
G01X7690004Y1770002D03*
G01X7690004Y2330002D03*
G01X7690004Y2800002D03*
G01X7690004Y3310002D03*
G01X7690004Y3780003D03*
G01X7690004Y6270004D03*
G01X7690004Y6740004D03*
G01X7700004Y4300003D03*
G01X7700004Y4770003D03*
G01X7700004Y5280003D03*
G01X7700004Y5750004D03*
G01X7720004Y250000D03*
G01X7730004Y7250004D03*
G01X7770004Y7840004D03*
G04 Drill Drawing End*

M02*

