G04 Layer: TopSolderMaskLayer*
G04 EasyEDA Pro v2.2.24.2, 2024-08-08 11:30:51*
G04 Gerber Generator version 0.3*
G04 Scale: 100 percent, Rotated: No, Reflected: No*
G04 Dimensions in millimeters*
G04 Leading zeros omitted, absolute positions, 3 integers and 5 decimals*
%FSLAX35Y35*%
%MOMM*%
%AMRoundRect*1,1,$1,$2,$3*1,1,$1,$4,$5*1,1,$1,0-$2,0-$3*1,1,$1,0-$4,0-$5*20,1,$1,$2,$3,$4,$5,0*20,1,$1,$4,$5,0-$2,0-$3,0*20,1,$1,0-$2,0-$3,0-$4,0-$5,0*20,1,$1,0-$4,0-$5,$2,$3,0*4,1,4,$2,$3,$4,$5,0-$2,0-$3,0-$4,0-$5,$2,$3,0*%
%ADD10RoundRect,0.09424X-0.60368X0.60368X0.60368X0.60368*%
%ADD11C,1.3016*%
%ADD12RoundRect,0.09131X-0.45514X-0.40514X-0.45514X0.40514*%
%ADD13RoundRect,0.09131X0.40514X-0.45514X-0.40514X-0.45514*%
%ADD14RoundRect,0.09495X0.70833X-0.67833X-0.70833X-0.67833*%
%ADD15RoundRect,0.09131X-0.40514X0.45514X0.40514X0.45514*%
%ADD16RoundRect,0.09495X0.67833X0.70833X0.67833X-0.70833*%
%ADD17RoundRect,0.09495X-0.67833X-0.70833X-0.67833X0.70833*%
%ADD18RoundRect,0.09549X0.86705X0.74556X0.86705X-0.74556*%
%ADD19O,0.38161X1.9016*%
%ADD20O,1.9016X0.38161*%
%ADD21RoundRect,0.08906X-0.30647X-0.55647X-0.30647X0.55647*%
%ADD22RoundRect,0.09516X0.70322X-1.06322X-0.70322X-1.06322*%
%ADD23RoundRect,0.09516X0.70322X-1.20322X-0.70322X-1.20322*%
%ADD24RoundRect,0.09138X-0.40835X0.43712X0.40835X0.43712*%
%ADD25RoundRect,0.09465X-0.64474X1.73147X0.64474X1.73147*%
%ADD26RoundRect,0.09138X0.40835X-0.43712X-0.40835X-0.43712*%
%ADD27RoundRect,0.09131X0.45514X0.40514X0.45514X-0.40514*%
%ADD28RoundRect,0.09618X0.85271X0.85271X0.85271X-0.85271*%
%ADD29C,1.8016*%
%ADD30RoundRect,0.09588X0.80286X0.80286X0.80286X-0.80286*%
%ADD31C,1.7016*%
%ADD32C,0.6016*%
G75*


G04 Pad Start*
G54D10*
G01X1585007Y7390081D03*
G54D11*
G01X1434995Y7389928D03*
G54D12*
G01X3600002Y2730004D03*
G01X3600002Y2590000D03*
G54D13*
G01X3810000Y2530002D03*
G01X3950005Y2530002D03*
G54D14*
G01X4140002Y2400002D03*
G01X4340002Y2400002D03*
G54D15*
G01X4260005Y2590002D03*
G01X4120000Y2590002D03*
G54D12*
G01X4540002Y2500004D03*
G01X4540002Y2359999D03*
G54D16*
G01X1771489Y6621495D03*
G01X1771489Y6821494D03*
G01X1981489Y6621495D03*
G01X1981489Y6821494D03*
G54D12*
G01X2983596Y6144699D03*
G01X2983596Y6004695D03*
G54D17*
G01X3313596Y6124690D03*
G01X3313596Y5924690D03*
G54D12*
G01X5203597Y6144692D03*
G01X5203597Y6004687D03*
G54D17*
G01X5523597Y6124690D03*
G01X5523597Y5924690D03*
G54D18*
G01X4750003Y2160744D03*
G01X4750003Y2479260D03*
G54D19*
G01X3769986Y4029999D03*
G01X3819999Y4029999D03*
G01X3869986Y4029999D03*
G01X3919999Y4029999D03*
G01X3969986Y4029999D03*
G01X4019999Y4029999D03*
G01X4069986Y4029999D03*
G01X4119998Y4029999D03*
G01X4169986Y4029999D03*
G01X4219998Y4029999D03*
G01X4269985Y4029999D03*
G01X4319998Y4029999D03*
G01X4369985Y4029999D03*
G01X4419998Y4029999D03*
G01X4469985Y4029999D03*
G01X4519998Y4029999D03*
G54D20*
G01X4699982Y3850014D03*
G01X4699982Y3800002D03*
G01X4699982Y3750014D03*
G01X4699982Y3700002D03*
G01X4699982Y3650015D03*
G01X4699982Y3600002D03*
G01X4699982Y3550015D03*
G01X4699982Y3500002D03*
G01X4699982Y3450015D03*
G01X4699982Y3400002D03*
G01X4699982Y3350015D03*
G01X4699982Y3300003D03*
G01X4699982Y3250015D03*
G01X4699982Y3200003D03*
G01X4699982Y3150016D03*
G01X4699982Y3100003D03*
G54D19*
G01X4519998Y2920019D03*
G01X4469985Y2920019D03*
G01X4419998Y2920019D03*
G01X4369985Y2920019D03*
G01X4319998Y2920019D03*
G01X4269985Y2920019D03*
G01X4219998Y2920019D03*
G01X4169986Y2920019D03*
G01X4119998Y2920019D03*
G01X4069986Y2920019D03*
G01X4019999Y2920019D03*
G01X3969986Y2920019D03*
G01X3919999Y2920019D03*
G01X3869986Y2920019D03*
G01X3819999Y2920019D03*
G01X3769986Y2920019D03*
G54D20*
G01X3590002Y3100003D03*
G01X3590002Y3150016D03*
G01X3590002Y3200003D03*
G01X3590002Y3250015D03*
G01X3590002Y3300003D03*
G01X3590002Y3350015D03*
G01X3590002Y3400002D03*
G01X3590002Y3450015D03*
G01X3590002Y3500002D03*
G01X3590002Y3550015D03*
G01X3590002Y3600002D03*
G01X3590002Y3650015D03*
G01X3590002Y3700002D03*
G01X3590002Y3750014D03*
G01X3590002Y3800002D03*
G01X3590002Y3850014D03*
G54D21*
G01X4813597Y6364692D03*
G01X4908593Y6364692D03*
G01X5003589Y6364692D03*
G01X5003589Y6094690D03*
G01X4908593Y6094690D03*
G01X4813597Y6094690D03*
G01X2593596Y6364698D03*
G01X2688592Y6364698D03*
G01X2783588Y6364698D03*
G01X2783588Y6094696D03*
G01X2688592Y6094696D03*
G01X2593596Y6094696D03*
G54D22*
G01X2980803Y6474690D03*
G01X3386390Y6474690D03*
G54D23*
G01X5200803Y6474690D03*
G01X5606390Y6474690D03*
G54D24*
G01X2065338Y4720003D03*
G01X1914665Y4720003D03*
G01X2065338Y4390003D03*
G01X1914665Y4390003D03*
G01X2065338Y4060003D03*
G01X1914665Y4060003D03*
G01X2065338Y3730002D03*
G01X1914665Y3730002D03*
G01X2065338Y3400002D03*
G01X1914665Y3400002D03*
G01X2065338Y3070002D03*
G01X1914665Y3070002D03*
G01X2065338Y2740002D03*
G01X1914665Y2740002D03*
G01X2065338Y2410002D03*
G01X1914665Y2410002D03*
G01X2065338Y2080002D03*
G01X1914665Y2080002D03*
G54D25*
G01X3016630Y7410004D03*
G01X2403373Y7410004D03*
G54D26*
G01X2593596Y5844690D03*
G01X2744269Y5844690D03*
G54D24*
G01X2744269Y5684689D03*
G01X2593596Y5684689D03*
G54D26*
G01X4813596Y5844690D03*
G01X4964269Y5844690D03*
G54D24*
G01X4964269Y5684689D03*
G01X4813596Y5684689D03*
G54D27*
G01X4970003Y3960000D03*
G01X4970003Y4100005D03*
G54D15*
G01X4760005Y4380003D03*
G01X4620000Y4380003D03*
G01X4210005Y4540003D03*
G01X4070000Y4540003D03*
G54D13*
G01X3810000Y4370003D03*
G01X3950005Y4370003D03*
G01X4300000Y4380003D03*
G01X4440005Y4380003D03*
G54D12*
G01X4960003Y2500004D03*
G01X4960003Y2359999D03*
G54D15*
G01X4210005Y4710003D03*
G01X4070000Y4710003D03*
G54D28*
G01X800000Y4416002D03*
G54D29*
G01X800000Y4162002D03*
G01X800000Y3908002D03*
G01X800000Y3654002D03*
G01X800000Y3400002D03*
G01X800000Y3146002D03*
G01X800000Y2892002D03*
G01X800000Y2638002D03*
G01X800000Y2384002D03*
G54D30*
G01X7160004Y4974002D03*
G54D31*
G01X7160004Y4720002D03*
G01X7160004Y4466002D03*
G01X7160004Y4212002D03*
G01X7160004Y3958002D03*
G01X7160004Y3704002D03*
G01X7160004Y3450002D03*
G01X7160004Y3196002D03*
G01X7160004Y2942002D03*
G01X7160004Y2688002D03*
G01X7160004Y2434002D03*
G01X7160004Y2180002D03*
G01X7160004Y1926002D03*
G54D15*
G01X4953599Y6564690D03*
G01X4813594Y6564690D03*
G54D13*
G01X2593594Y6564690D03*
G01X2733599Y6564690D03*
G54D32*
G01X3630002Y4180003D03*
G01X3630002Y4260003D03*
G01X3440002Y6130004D03*
G01X5650003Y6120004D03*
G01X2221489Y6821497D03*
G01X2210001Y6620004D03*
G01X3180002Y7330004D03*
G54D27*
G01X2260001Y2269999D03*
G01X2260001Y2410004D03*
G01X2260001Y2600000D03*
G01X2260001Y2740004D03*
G01X2260001Y2930000D03*
G01X2260001Y3070005D03*
G01X2260001Y3260000D03*
G01X2260001Y3400005D03*
G01X2260001Y3590000D03*
G01X2260001Y3730005D03*
G01X2260001Y3920000D03*
G01X2260001Y4060005D03*
G01X2260001Y4250000D03*
G01X2260001Y4390005D03*
G01X2260001Y4580000D03*
G01X2260001Y4720005D03*
G54D24*
G01X5875340Y4410003D03*
G01X5724667Y4410003D03*
G01X5875340Y4250003D03*
G01X5724667Y4250003D03*
G01X5875340Y4090003D03*
G01X5724667Y4090003D03*
G01X5875340Y3930003D03*
G01X5724667Y3930003D03*
G01X5875340Y3770003D03*
G01X5724667Y3770003D03*
G01X5875340Y3610002D03*
G01X5724667Y3610002D03*
G01X5875340Y3450002D03*
G01X5724667Y3450002D03*
G01X5875340Y3290002D03*
G01X5724667Y3290002D03*
G01X5875340Y3130002D03*
G01X5724667Y3130002D03*
G01X5875340Y2970002D03*
G01X5724667Y2970002D03*
G01X5875340Y2810002D03*
G01X5724667Y2810002D03*
G01X5875340Y2650002D03*
G01X5724667Y2650002D03*
G01X5875340Y2490002D03*
G01X5724667Y2490002D03*
G04 Pad End*

M02*

