G04 Layer: TopLayer*
G04 EasyEDA Pro v2.2.24.2, 2024-08-08 11:30:51*
G04 Gerber Generator version 0.3*
G04 Scale: 100 percent, Rotated: No, Reflected: No*
G04 Dimensions in millimeters*
G04 Leading zeros omitted, absolute positions, 3 integers and 5 decimals*
%FSLAX35Y35*%
%MOMM*%
%ADD10C,0.5*%
%ADD11R,1.2X1.2*%
%ADD12C,1.2*%
%ADD13R,0.9X0.8*%
%ADD14R,0.8X0.9*%
%ADD15R,1.4108X1.35001*%
%ADD16R,1.41X1.35001*%
%ADD17R,0.8X0.9*%
%ADD18R,1.35001X1.41*%
%ADD19R,1.35001X1.41*%
%ADD20R,1.72799X1.48501*%
%ADD21O,0.28001X1.8*%
%ADD22O,1.8X0.28001*%
%ADD23R,0.6X1.1*%
%ADD24R,1.4X2.12001*%
%ADD25R,1.4X2.4*%
%ADD26R,0.80648X0.86401*%
%ADD27R,1.28252X3.456*%
%ADD28R,0.80648X0.86401*%
%ADD29R,0.9X0.8*%
%ADD30R,1.7X1.7*%
%ADD31C,1.7*%
%ADD32R,1.6X1.6*%
%ADD33C,1.6*%
%ADD34C,0.508*%
%ADD35C,0.8*%
%ADD36C,0.28*%
%ADD37C,1.0*%
%ADD38C,0.6*%
%ADD39C,0.2794*%
G75*


G04 Copper Start*
G36*
G01X7949346Y7949346D02*
G01X7949346Y50654D01*
G01X50654Y50654D01*
G01X50654Y7949346D01*
G01X7949346Y7949346D01*
G37*
%LPC*%
G36*
G01X850654Y7400000D02*
G03X349346Y7400000I-250654J0D01*
G03X850654Y7400000I250654J0D01*
G37*
G36*
G01X850654Y600000D02*
G03X349346Y600000I-250654J0D01*
G03X850654Y600000I250654J0D01*
G37*
G36*
G01X882710Y4575254D02*
G01X720000Y4575254D01*
G03X644746Y4500000I0J-75254D01*
G01X644746Y2314000D01*
G03X720000Y2238746I75254J0D01*
G01X882710Y2238746D01*
G03X955075Y2293348I0J75254D01*
G01X1028450Y2293348D01*
G01X1305899Y2015900D01*
G03X1370001Y1989348I64102J64102D01*
G01X1856622Y1989348D01*
G03X1874341Y1986147I17719J47454D01*
G01X1954988Y1986147D01*
G03X1984672Y1995756I0J50654D01*
G01X1985006Y1995418D01*
G01X2019042Y1961382D01*
G03X2054860Y1946546I35818J35818D01*
G01X2401570Y1946546D01*
G03X2437388Y1961382I0J50654D01*
G01X2482600Y2006594D01*
G03X2497436Y2042412I-35818J35818D01*
G01X2497436Y2205345D01*
G01X2629999Y2205345D01*
G03X2675717Y2224282I0J64654D01*
G01X3306799Y2855365D01*
G01X3705332Y2855365D01*
G01X3705332Y2844019D01*
G03X3728229Y2794658I64654J0D01*
G01X3689251Y2794658D01*
G03X3645002Y2820658I-44249J-24654D01*
G01X3555002Y2820658D01*
G03X3510736Y2794628I0J-50654D01*
G01X3502166Y2794628D01*
G03X3456470Y2775700I0J-64624D01*
G01X3411498Y2730728D01*
G03X3392570Y2685032I45696J-45696D01*
G01X3392570Y2486912D01*
G03X3411498Y2441216I64624J0D01*
G01X3459678Y2393036D01*
G03X3505374Y2374108I45696J45696D01*
G01X3718730Y2374108D01*
G03X3764426Y2393036I0J64624D01*
G01X3805738Y2434348D01*
G01X3850000Y2434348D01*
G03X3900654Y2485002I0J50654D01*
G01X3900654Y2575002D01*
G03X3900491Y2579057I-50654J0D01*
G01X4015703Y2694268D01*
G01X4038281Y2716846D01*
G01X4055345Y2733911D01*
G01X4055345Y2679251D01*
G03X4029346Y2635002I24655J-44249D01*
G01X4029346Y2545002D01*
G03X4042844Y2510574I50654J0D01*
G03X4018848Y2467502I26658J-43072D01*
G01X4018848Y2332501D01*
G03X4069502Y2281847I50654J0D01*
G01X4210503Y2281847D01*
G03X4261157Y2332501I0J50654D01*
G01X4261157Y2467502D01*
G03X4210503Y2518156I-50654J0D01*
G01X4202955Y2518156D01*
G03X4210654Y2545002I-42955J26846D01*
G01X4210654Y2635002D01*
G03X4184653Y2679252I-50654J0D01*
G01X4184653Y2763919D01*
G01X4444348Y2504224D01*
G01X4444348Y2460004D01*
G03X4495002Y2409350I50654J0D01*
G01X4585002Y2409350D01*
G03X4612949Y2417758I0J50654D01*
G01X4612949Y2405009D01*
G03X4663603Y2354355I50654J0D01*
G01X4836402Y2354355D01*
G03X4887056Y2405009I0J50654D01*
G01X4887056Y2417757D01*
G03X4915003Y2409350I27947J42247D01*
G01X5005003Y2409350D01*
G03X5055657Y2460004I0J50654D01*
G01X5055657Y2540004D01*
G03X5024657Y2586690I-50654J0D01*
G01X5024657Y2650002D01*
G03X5005720Y2695719I-64654J0D01*
G01X4945820Y2755619D01*
G03X4913175Y2773221I-45717J-45717D01*
G03X4924657Y2810002I-53172J36781D01*
G01X4924657Y2985599D01*
G03X4935468Y2993832I-25006J44051D01*
G01X4955820Y3014184D01*
G03X4970657Y3050002I-35818J35818D01*
G01X4970657Y3057908D01*
G01X5584280Y2444285D01*
G03X5629997Y2425348I45717J45717D01*
G01X5638457Y2425348D01*
G03X5684343Y2396148I45886J21454D01*
G01X5764991Y2396148D01*
G03X5800003Y2410196I0J50654D01*
G03X5835016Y2396148I35013J36605D01*
G01X5915663Y2396148D01*
G03X5961550Y2425348I0J50654D01*
G01X6133223Y2425348D01*
G01X6678286Y1880285D01*
G03X6724003Y1861348I45717J45717D01*
G01X7018240Y1861348D01*
G03X7090004Y1808745I71764J22651D01*
G01X7102374Y1808745D01*
G03X7217634Y1808745I57630J117257D01*
G01X7232714Y1808745D01*
G03X7307968Y1883999I0J75254D01*
G01X7307968Y5030000D01*
G03X7265846Y5097568I-75254J0D01*
G03X7242754Y5104581I-25842J-43566D01*
G03X7232714Y5105254I-10039J-74581D01*
G01X7090004Y5105254D01*
G03X7080536Y5104656I0J-75254D01*
G01X7080004Y5104656D01*
G03X7043681Y5089307I0J-50654D01*
G03X7015250Y5038656I46323J-59307D01*
G01X6724003Y5038656D01*
G03X6678286Y5019719I0J-64654D01*
G01X6133223Y4474657D01*
G01X5961550Y4474657D01*
G03X5915663Y4503857I-45886J-21454D01*
G01X5835016Y4503857D01*
G03X5800003Y4489808I0J-50654D01*
G03X5764991Y4503857I-35013J-36605D01*
G01X5684343Y4503857D01*
G03X5658263Y4496627I0J-50654D01*
G01X6325821Y5164186D01*
G03X6340657Y5200003I-35818J35818D01*
G01X6340657Y7010004D01*
G03X6325821Y7045822I-50654J0D01*
G01X5640162Y7731481D01*
G03X5604344Y7746317I-35818J-35818D01*
G01X2939640Y7746317D01*
G03X2888986Y7695663I0J-50654D01*
G01X2888986Y7130004D01*
G03X2939640Y7079350I50654J0D01*
G01X4319021Y7079350D01*
G01X4459894Y6938477D01*
G01X4459894Y6922148D01*
G01X2089691Y6922148D01*
G03X2048990Y6942648I-40701J-30154D01*
G01X1913989Y6942648D01*
G03X1876489Y6926047I0J-50654D01*
G03X1838989Y6942648I-37500J-34053D01*
G01X1792681Y6942648D01*
G01X1685661Y7049668D01*
G01X1685661Y7299864D01*
G03X1695661Y7330081I-40654J30217D01*
G01X1695661Y7450081D01*
G03X1645007Y7500735I-50654J0D01*
G01X1525007Y7500735D01*
G03X1474353Y7450081I0J-50654D01*
G01X1474353Y7330081D01*
G03X1484353Y7299864I50654J0D01*
G01X1484353Y7007976D01*
G03X1513834Y6936803I100654J0D01*
G01X1653334Y6797302D01*
G01X1653334Y6750994D01*
G03X1703988Y6700340I50654J0D01*
G01X1838989Y6700340D01*
G03X1876489Y6716941I0J50654D01*
G03X1913989Y6700340I37500J34053D01*
G01X2048990Y6700340D01*
G03X2089691Y6720840I0J50654D01*
G01X2495058Y6720840D01*
G01X2512942Y6702956D01*
G01X2512942Y6639910D01*
G03X2502940Y6609690I40652J-30220D01*
G01X2502940Y6519690D01*
G03X2512942Y6489470I50654J0D01*
G01X2512942Y6309698D01*
G03X2528942Y6272753I50654J0D01*
G01X2528942Y6230466D01*
G03X2539894Y6194462I64654J0D01*
G03X2512942Y6149696I23702J-44767D01*
G01X2512942Y6039696D01*
G03X2517942Y6017752I50654J0D01*
G01X2517942Y5924189D01*
G03X2502618Y5887890I35330J-36299D01*
G01X2502618Y5801489D01*
G03X2517942Y5765191I50654J0D01*
G01X2517942Y5764189D01*
G03X2502618Y5727890I35330J-36299D01*
G01X2502618Y5641489D01*
G03X2553272Y5590835I50654J0D01*
G01X2633919Y5590835D01*
G03X2668932Y5604884I0J50654D01*
G03X2703945Y5590835I35013J36605D01*
G01X2784592Y5590835D01*
G03X2823484Y5609036I0J50654D01*
G01X3344688Y5609036D01*
G03X3398183Y5631194I0J75654D01*
G01X3493497Y5726508D01*
G03X3515656Y5780004I-53495J53495D01*
G01X3515820Y6031556D01*
G03X3528953Y6054350I-35818J35818D01*
G01X3698665Y6054350D01*
G01X3734346Y6018669D01*
G01X3734346Y4450984D01*
G03X3719346Y4415003I35654J-35981D01*
G01X3719346Y4325003D01*
G01X3719347Y4324657D01*
G01X3669288Y4324657D01*
G03X3576211Y4313201I-39286J-64654D01*
G03X3565787Y4220003I53791J-53198D01*
G03X3576211Y4126805I64215J-40000D01*
G03X3669288Y4115349I53791J53198D01*
G01X3706012Y4115349D01*
G03X3705332Y4105998I63975J-9351D01*
G01X3705332Y3953999D01*
G03X3794993Y3894376I64654J0D01*
G03X3869999Y3913009I25006J59623D01*
G03X3955345Y3899862I50000J40990D01*
G01X3955345Y3825254D01*
G01X3725727Y3825254D01*
G03X3666001Y3914669I-59725J24760D01*
G01X3514003Y3914669D01*
G03X3451028Y3864655I0J-64654D01*
G01X3426783Y3864655D01*
G01X2525719Y4765720D01*
G03X2480001Y4784657I-45717J-45717D01*
G01X2349252Y4784657D01*
G03X2305001Y4810659I-44251J-24652D01*
G01X2215001Y4810659D01*
G03X2170751Y4784657I0J-50654D01*
G01X2151548Y4784657D01*
G03X2105661Y4813857I-45886J-21454D01*
G01X2025014Y4813857D01*
G03X1990001Y4799808I0J-50654D01*
G03X1954988Y4813857I-35013J-36605D01*
G01X1874341Y4813857D01*
G03X1856622Y4810657I0J-50654D01*
G01X1370001Y4810657D01*
G03X1305899Y4784105I0J-90654D01*
G01X1028450Y4506656D01*
G01X957669Y4506656D01*
G03X882710Y4575254I-74959J-6656D01*
G37*
G36*
G01X7650654Y600000D02*
G03X7149346Y600000I-250654J0D01*
G03X7650654Y600000I250654J0D01*
G37*
G36*
G01X7650654Y7400000D02*
G03X7149346Y7400000I-250654J0D01*
G03X7650654Y7400000I250654J0D01*
G37*
%LPD*%
G36*
G01X2669250Y5989042D02*
G01X2718592Y5989042D01*
G01X2719322Y5989047D01*
G01X2794184Y5914186D01*
G03X2830002Y5899350I35818J35818D01*
G01X3040002Y5899350D01*
G03X3075819Y5914186I0J50654D01*
G01X3089830Y5928197D01*
G03X3104667Y5964015I-35818J35818D01*
G01X3104667Y6045134D01*
G03X3092072Y6078560I-50654J0D01*
G01X3115819Y6102308D01*
G03X3130656Y6138126I-35818J35818D01*
G01X3130656Y6614454D01*
G03X3115819Y6650272I-50654J0D01*
G01X3082541Y6683550D01*
G03X3046724Y6698386I-35818J-35818D01*
G01X2917730Y6698386D01*
G03X2881912Y6683550I0J-50654D01*
G01X2854184Y6655822D01*
G03X2839348Y6620004I35818J-35818D01*
G01X2839348Y6336594D01*
G01X2780655Y6336594D01*
G01X2780655Y6410004D01*
G03X2765819Y6445822I-50654J0D01*
G01X2755819Y6455822D01*
G03X2720001Y6470658I-35818J-35818D01*
G01X2674250Y6470658D01*
G01X2674250Y6489476D01*
G03X2684248Y6519690I-40656J30214D01*
G01X2684248Y6609690D01*
G03X2674250Y6639904I-50654J0D01*
G01X2674250Y6702956D01*
G01X2692134Y6720840D01*
G01X4459894Y6720840D01*
G01X4459894Y4374774D01*
G01X4364654Y4279534D01*
G01X4364654Y4290754D01*
G03X4390654Y4335003I-24654J44249D01*
G01X4390654Y4425003D01*
G03X4375654Y4460984I-50654J0D01*
G01X4375654Y4790005D01*
G03X4353495Y4843501I-75654J0D01*
G01X4261198Y4935798D01*
G03X4207702Y4957957I-53495J-53495D01*
G01X3897308Y4957957D01*
G01X3885654Y4969611D01*
G01X3885654Y6050006D01*
G03X3863495Y6103502I-75654J0D01*
G01X3783497Y6183499D01*
G03X3730002Y6205658I-53495J-53495D01*
G01X3530656Y6205658D01*
G01X3530656Y6619440D01*
G03X3515820Y6655258I-50654J0D01*
G01X3485820Y6685258D01*
G03X3450002Y6700094I-35818J-35818D01*
G01X3240002Y6700094D01*
G03X3204184Y6685258I0J-50654D01*
G01X3167418Y6648492D01*
G03X3152582Y6612674I35818J-35818D01*
G01X3152582Y6076770D01*
G03X3167418Y6040952I50654J0D01*
G01X3204184Y6004186D01*
G03X3240002Y5989350I35818J35818D01*
G01X3364348Y5989350D01*
G01X3364348Y5811341D01*
G01X3313351Y5760343D01*
G01X2823484Y5760343D01*
G03X2784592Y5778544I-38892J-32454D01*
G01X2703945Y5778544D01*
G03X2669250Y5764796I0J-50654D01*
G01X2669250Y5765191D01*
G03X2684573Y5801489I-35330J36299D01*
G01X2684573Y5887890D01*
G03X2669250Y5924189I-50654J0D01*
G01X2669250Y5989042D01*
G37*
G36*
G01X4813597Y6922148D02*
G01X4535548Y6922148D01*
G01X4535548Y6959459D01*
G03X4528226Y6977136I-25000J0D01*
G01X4357680Y7147682D01*
G03X4340002Y7155004I-17678J-17678D01*
G01X2964640Y7155004D01*
G01X2964640Y7670663D01*
G01X5593989Y7670663D01*
G01X6265003Y6999649D01*
G01X6265003Y5210359D01*
G01X5195657Y4141012D01*
G01X5195657Y4940582D01*
G01X5301329Y5046254D01*
G01X5923788Y5046254D01*
G03X5977283Y5068413I0J75654D01*
G01X6125873Y5217003D01*
G03X6148032Y5270498I-53495J53495D01*
G01X6148032Y6007623D01*
G03X6125873Y6061118I-75654J0D01*
G01X6014346Y6172646D01*
G03X5960850Y6194804I-53495J-53495D01*
G01X5750657Y6194804D01*
G01X5750657Y6619434D01*
G03X5735820Y6655252I-50654J0D01*
G01X5705820Y6685252D01*
G03X5670003Y6700088I-35818J-35818D01*
G01X5460003Y6700088D01*
G03X5424185Y6685252I0J-50654D01*
G01X5387419Y6648486D01*
G03X5372583Y6612668I35818J-35818D01*
G01X5372583Y6076764D01*
G03X5387419Y6040946I50654J0D01*
G01X5424185Y6004180D01*
G03X5460003Y5989344I35818J35818D01*
G01X5584349Y5989344D01*
G01X5584349Y5811334D01*
G01X5533352Y5760337D01*
G01X5043490Y5760337D01*
G03X5004593Y5778544I-38897J-32447D01*
G01X4923945Y5778544D01*
G03X4889250Y5764796I0J-50654D01*
G01X4889250Y5765191D01*
G03X4904574Y5801489I-35330J36299D01*
G01X4904574Y5887890D01*
G03X4889250Y5924189I-50654J0D01*
G01X4889250Y5989036D01*
G01X4938593Y5989036D01*
G01X4939323Y5989041D01*
G01X5014185Y5914180D01*
G03X5050002Y5899344I35818J35818D01*
G01X5260002Y5899344D01*
G03X5295820Y5914180I0J50654D01*
G01X5309831Y5928191D01*
G03X5324667Y5964009I-35818J35818D01*
G01X5324667Y6045128D01*
G03X5312073Y6078554I-50654J0D01*
G01X5335820Y6102302D01*
G03X5350656Y6138120I-35818J35818D01*
G01X5350656Y6614448D01*
G03X5335820Y6650266I-50654J0D01*
G01X5302542Y6683544D01*
G03X5266724Y6698380I-35818J-35818D01*
G01X5137730Y6698380D01*
G03X5101913Y6683544I0J-50654D01*
G01X5074185Y6655816D01*
G03X5059348Y6619998I35818J-35818D01*
G01X5059348Y6336588D01*
G01X5000656Y6336588D01*
G01X5000656Y6409998D01*
G03X4985820Y6445816I-50654J0D01*
G01X4975820Y6455816D01*
G03X4940002Y6470652I-35818J-35818D01*
G01X4894250Y6470652D01*
G01X4894250Y6489476D01*
G03X4904248Y6519690I-40657J30214D01*
G01X4904248Y6609690D01*
G03X4894250Y6639904I-50654J0D01*
G01X4894250Y6761276D01*
G03X4813597Y6922148I-80654J60218D01*
G37*
G36*
G01X3555002Y2639351D02*
G01X3645002Y2639351D01*
G03X3689251Y2665351I0J50654D01*
G01X3790004Y2665351D01*
G03X3805901Y2667335I0J64654D01*
G01X3764283Y2625717D01*
G01X3763851Y2625281D01*
G03X3719346Y2575002I6149J-50279D01*
G01X3719346Y2530740D01*
G01X3691962Y2503356D01*
G01X3532142Y2503356D01*
G01X3521818Y2513680D01*
G01X3521818Y2651734D01*
G03X3555002Y2639351I33184J38271D01*
G37*
G36*
G01X4084652Y4140008D02*
G03X4065716Y4185725I-64654J0D01*
G01X3900654Y4350785D01*
G01X3900654Y4415003D01*
G03X3885654Y4450984I-50654J0D01*
G01X3885654Y4482917D01*
G01X4105332Y4263239D01*
G01X4105332Y4106254D01*
G01X4105331Y4105998D01*
G01X4105331Y3953999D01*
G01X4105332Y3953743D01*
G01X4105332Y3596766D01*
G01X4075643Y3567078D01*
G03X4084652Y3599999I-55645J32921D01*
G01X4084652Y3953743D01*
G01X4084653Y3953999D01*
G01X4084653Y4105998D01*
G01X4084652Y4106254D01*
G01X4084652Y4140008D01*
G37*
G36*
G01X3885654Y4614657D02*
G01X3885654Y4794995D01*
G01X3897308Y4806649D01*
G01X4176366Y4806649D01*
G01X4177358Y4805657D01*
G01X4170005Y4805657D01*
G03X4119351Y4755003I0J-50654D01*
G01X4119351Y4665003D01*
G03X4138927Y4625003I50654J0D01*
G03X4119351Y4585003I31078J-40000D01*
G01X4119351Y4495003D01*
G03X4155344Y4446517I50654J0D01*
G01X4155344Y4396095D01*
G01X3955719Y4595720D01*
G03X3910002Y4614657I-45717J-45717D01*
G01X3885654Y4614657D01*
G37*
G36*
G01X4309348Y3059789D02*
G03X4294992Y3055641I10650J-63771D01*
G03X4244992Y3055646I-25006J-59623D01*
G03X4169998Y3037008I-24994J-59628D01*
G03X4084652Y3050155I-50000J-40990D01*
G01X4084652Y3263218D01*
G01X4309348Y3487914D01*
G01X4309348Y3059789D01*
G37*
G36*
G01X4440002Y3174626D02*
G01X4385002Y3174626D01*
G01X4385002Y3891113D01*
G03X4419985Y3913009I-15017J62886D01*
G03X4534639Y3953999I50000J40990D01*
G01X4534639Y4026311D01*
G03X4534751Y4030111I-64542J3800D01*
G01X4534751Y4106407D01*
G01X4563793Y4135449D01*
G01X4690103Y4135449D01*
G03X4735820Y4154386I0J64654D01*
G01X4805722Y4224288D01*
G03X4824659Y4270005I-45717J45717D01*
G01X4824659Y4290754D01*
G03X4840330Y4304349I-24654J44249D01*
G01X5019860Y4304349D01*
G01X5044349Y4279860D01*
G01X5044349Y4111340D01*
G01X4983663Y4050654D01*
G01X4925003Y4050654D01*
G03X4874349Y4000000I0J-50654D01*
G01X4874349Y3955781D01*
G01X4833236Y3914668D01*
G01X4776238Y3914668D01*
G01X4775981Y3914669D01*
G01X4623983Y3914669D01*
G03X4564360Y3825008I0J-64654D01*
G03X4564354Y3775008I59623J-25006D01*
G03X4564360Y3725008I59628J-24994D01*
G03X4564354Y3675008I59623J-25006D01*
G03X4564360Y3625008I59628J-24994D01*
G03X4564354Y3575008I59623J-25006D01*
G03X4565940Y3521532I59628J-24994D01*
G01X4565940Y3478498D01*
G03X4564360Y3425009I58042J-28483D01*
G03X4564354Y3375009I59623J-25006D01*
G03X4564360Y3325009I59628J-24994D01*
G03X4564354Y3275009I59623J-25006D01*
G03X4564360Y3225009I59628J-24994D01*
G03X4564354Y3175009I59623J-25006D01*
G03X4623983Y3085361I59628J-24994D01*
G01X4775981Y3085361D01*
G01X4776238Y3085362D01*
G01X4895003Y3085362D01*
G01X4895003Y3060357D01*
G01X4889295Y3054650D01*
G01X4579739Y3054650D01*
G03X4565694Y3075703I-59741J-24643D01*
G01X4485698Y3155698D01*
G03X4440002Y3174626I-45696J-45696D01*
G37*
G36*
G01X4795349Y2978996D02*
G01X4795349Y2836783D01*
G01X4783022Y2824456D01*
G01X4546983Y2824456D01*
G01X4534639Y2836800D01*
G01X4534639Y2843763D01*
G01X4534639Y2844019D01*
G01X4534639Y2978996D01*
G01X4795349Y2978996D01*
G37*
G36*
G01X4535548Y4626983D02*
G01X4535548Y6720840D01*
G01X4715058Y6720840D01*
G01X4732943Y6702956D01*
G01X4732943Y6639911D01*
G03X4722940Y6609690I40651J-30221D01*
G01X4722940Y6519690D01*
G03X4732943Y6489470I50654J0D01*
G01X4732943Y6309692D01*
G03X4748943Y6272747I50654J0D01*
G01X4748943Y6230460D01*
G03X4759895Y6194456I64654J0D01*
G03X4732943Y6149690I23702J-44767D01*
G01X4732943Y6039690D01*
G03X4737943Y6017746I50654J0D01*
G01X4737943Y5924189D01*
G03X4722619Y5887890I35330J-36299D01*
G01X4722619Y5801489D01*
G03X4737943Y5765190I50654J0D01*
G01X4737943Y5764189D01*
G03X4722619Y5727890I35330J-36299D01*
G01X4722619Y5641489D01*
G03X4773273Y5590835I50654J0D01*
G01X4853920Y5590835D01*
G03X4888933Y5604884I0J50654D01*
G03X4923945Y5590835I35013J36605D01*
G01X5004593Y5590835D01*
G03X5043480Y5609029I0J50654D01*
G01X5564689Y5609029D01*
G03X5618184Y5631188I0J75654D01*
G01X5713498Y5726502D01*
G03X5735657Y5779998I-53495J53495D01*
G01X5735820Y6031550D01*
G03X5744679Y6043496I-35818J35818D01*
G01X5929514Y6043496D01*
G01X5996724Y5976286D01*
G01X5996724Y5301835D01*
G01X5892451Y5197562D01*
G01X5269992Y5197562D01*
G03X5216497Y5175403I0J-75654D01*
G01X5066507Y5025414D01*
G03X5044349Y4971919I53495J-53495D01*
G01X5044349Y4666945D01*
G01X5042061Y4664657D01*
G01X4600002Y4664657D01*
G03X4554285Y4645720I0J-64654D01*
G01X4535548Y4626983D01*
G37*
G36*
G01X4551963Y4264757D02*
G01X4575720Y4288513D01*
G03X4594656Y4334231I-45717J45717D01*
G01X4594656Y4503222D01*
G01X4626783Y4535349D01*
G01X5042061Y4535349D01*
G01X5044349Y4533061D01*
G01X5044349Y4480146D01*
G01X5019860Y4455657D01*
G01X4840330Y4455657D01*
G03X4800005Y4475657I-40326J-30654D01*
G01X4720005Y4475657D01*
G03X4669351Y4425003I0J-50654D01*
G01X4669351Y4335003D01*
G03X4691617Y4293051I50654J0D01*
G01X4663322Y4264757D01*
G01X4551963Y4264757D01*
G37*
G36*
G01X5640919Y4479283D02*
G03X5638457Y4474657I43424J-26080D01*
G01X5636292Y4474657D01*
G01X5640919Y4479283D01*
G37*
G54D10*
G01X7949346Y7949346D02*
G01X7949346Y50654D01*
G01X50654Y50654D01*
G01X50654Y7949346D01*
G01X7949346Y7949346D01*
G01X850654Y7400000D02*
G03X349346Y7400000I-250654J0D01*
G03X850654Y7400000I250654J0D01*
G01X850654Y600000D02*
G03X349346Y600000I-250654J0D01*
G03X850654Y600000I250654J0D01*
G01X882710Y4575254D02*
G01X720000Y4575254D01*
G03X644746Y4500000I0J-75254D01*
G01X644746Y2314000D01*
G03X720000Y2238746I75254J0D01*
G01X882710Y2238746D01*
G03X955075Y2293348I0J75254D01*
G01X1028450Y2293348D01*
G01X1305899Y2015900D01*
G03X1370001Y1989348I64102J64102D01*
G01X1856622Y1989348D01*
G03X1874341Y1986147I17719J47454D01*
G01X1954988Y1986147D01*
G03X1984672Y1995756I0J50654D01*
G01X1985006Y1995418D01*
G01X2019042Y1961382D01*
G03X2054860Y1946546I35818J35818D01*
G01X2401570Y1946546D01*
G03X2437388Y1961382I0J50654D01*
G01X2482600Y2006594D01*
G03X2497436Y2042412I-35818J35818D01*
G01X2497436Y2205345D01*
G01X2629999Y2205345D01*
G03X2675717Y2224282I0J64654D01*
G01X3306799Y2855365D01*
G01X3705332Y2855365D01*
G01X3705332Y2844019D01*
G03X3728229Y2794658I64654J0D01*
G01X3689251Y2794658D01*
G03X3645002Y2820658I-44249J-24654D01*
G01X3555002Y2820658D01*
G03X3510736Y2794628I0J-50654D01*
G01X3502166Y2794628D01*
G03X3456470Y2775700I0J-64624D01*
G01X3411498Y2730728D01*
G03X3392570Y2685032I45696J-45696D01*
G01X3392570Y2486912D01*
G03X3411498Y2441216I64624J0D01*
G01X3459678Y2393036D01*
G03X3505374Y2374108I45696J45696D01*
G01X3718730Y2374108D01*
G03X3764426Y2393036I0J64624D01*
G01X3805738Y2434348D01*
G01X3850000Y2434348D01*
G03X3900654Y2485002I0J50654D01*
G01X3900654Y2575002D01*
G03X3900491Y2579057I-50654J0D01*
G01X4015703Y2694268D01*
G01X4038281Y2716846D01*
G01X4055345Y2733911D01*
G01X4055345Y2679251D01*
G03X4029346Y2635002I24655J-44249D01*
G01X4029346Y2545002D01*
G03X4042844Y2510574I50654J0D01*
G03X4018848Y2467502I26658J-43072D01*
G01X4018848Y2332501D01*
G03X4069502Y2281847I50654J0D01*
G01X4210503Y2281847D01*
G03X4261157Y2332501I0J50654D01*
G01X4261157Y2467502D01*
G03X4210503Y2518156I-50654J0D01*
G01X4202955Y2518156D01*
G03X4210654Y2545002I-42955J26846D01*
G01X4210654Y2635002D01*
G03X4184653Y2679252I-50654J0D01*
G01X4184653Y2763919D01*
G01X4444348Y2504224D01*
G01X4444348Y2460004D01*
G03X4495002Y2409350I50654J0D01*
G01X4585002Y2409350D01*
G03X4612949Y2417758I0J50654D01*
G01X4612949Y2405009D01*
G03X4663603Y2354355I50654J0D01*
G01X4836402Y2354355D01*
G03X4887056Y2405009I0J50654D01*
G01X4887056Y2417757D01*
G03X4915003Y2409350I27947J42247D01*
G01X5005003Y2409350D01*
G03X5055657Y2460004I0J50654D01*
G01X5055657Y2540004D01*
G03X5024657Y2586690I-50654J0D01*
G01X5024657Y2650002D01*
G03X5005720Y2695719I-64654J0D01*
G01X4945820Y2755619D01*
G03X4913175Y2773221I-45717J-45717D01*
G03X4924657Y2810002I-53172J36781D01*
G01X4924657Y2985599D01*
G03X4935468Y2993832I-25006J44051D01*
G01X4955820Y3014184D01*
G03X4970657Y3050002I-35818J35818D01*
G01X4970657Y3057908D01*
G01X5584280Y2444285D01*
G03X5629997Y2425348I45717J45717D01*
G01X5638457Y2425348D01*
G03X5684343Y2396148I45886J21454D01*
G01X5764991Y2396148D01*
G03X5800003Y2410196I0J50654D01*
G03X5835016Y2396148I35013J36605D01*
G01X5915663Y2396148D01*
G03X5961550Y2425348I0J50654D01*
G01X6133223Y2425348D01*
G01X6678286Y1880285D01*
G03X6724003Y1861348I45717J45717D01*
G01X7018240Y1861348D01*
G03X7090004Y1808745I71764J22651D01*
G01X7102374Y1808745D01*
G03X7217634Y1808745I57630J117257D01*
G01X7232714Y1808745D01*
G03X7307968Y1883999I0J75254D01*
G01X7307968Y5030000D01*
G03X7265846Y5097568I-75254J0D01*
G03X7242754Y5104581I-25842J-43566D01*
G03X7232714Y5105254I-10039J-74581D01*
G01X7090004Y5105254D01*
G03X7080536Y5104656I0J-75254D01*
G01X7080004Y5104656D01*
G03X7043681Y5089307I0J-50654D01*
G03X7015250Y5038656I46323J-59307D01*
G01X6724003Y5038656D01*
G03X6678286Y5019719I0J-64654D01*
G01X6133223Y4474657D01*
G01X5961550Y4474657D01*
G03X5915663Y4503857I-45886J-21454D01*
G01X5835016Y4503857D01*
G03X5800003Y4489808I0J-50654D01*
G03X5764991Y4503857I-35013J-36605D01*
G01X5684343Y4503857D01*
G03X5658263Y4496627I0J-50654D01*
G01X6325821Y5164186D01*
G03X6340657Y5200003I-35818J35818D01*
G01X6340657Y7010004D01*
G03X6325821Y7045822I-50654J0D01*
G01X5640162Y7731481D01*
G03X5604344Y7746317I-35818J-35818D01*
G01X2939640Y7746317D01*
G03X2888986Y7695663I0J-50654D01*
G01X2888986Y7130004D01*
G03X2939640Y7079350I50654J0D01*
G01X4319021Y7079350D01*
G01X4459894Y6938477D01*
G01X4459894Y6922148D01*
G01X2089691Y6922148D01*
G03X2048990Y6942648I-40701J-30154D01*
G01X1913989Y6942648D01*
G03X1876489Y6926047I0J-50654D01*
G03X1838989Y6942648I-37500J-34053D01*
G01X1792681Y6942648D01*
G01X1685661Y7049668D01*
G01X1685661Y7299864D01*
G03X1695661Y7330081I-40654J30217D01*
G01X1695661Y7450081D01*
G03X1645007Y7500735I-50654J0D01*
G01X1525007Y7500735D01*
G03X1474353Y7450081I0J-50654D01*
G01X1474353Y7330081D01*
G03X1484353Y7299864I50654J0D01*
G01X1484353Y7007976D01*
G03X1513834Y6936803I100654J0D01*
G01X1653334Y6797302D01*
G01X1653334Y6750994D01*
G03X1703988Y6700340I50654J0D01*
G01X1838989Y6700340D01*
G03X1876489Y6716941I0J50654D01*
G03X1913989Y6700340I37500J34053D01*
G01X2048990Y6700340D01*
G03X2089691Y6720840I0J50654D01*
G01X2495058Y6720840D01*
G01X2512942Y6702956D01*
G01X2512942Y6639910D01*
G03X2502940Y6609690I40652J-30220D01*
G01X2502940Y6519690D01*
G03X2512942Y6489470I50654J0D01*
G01X2512942Y6309698D01*
G03X2528942Y6272753I50654J0D01*
G01X2528942Y6230466D01*
G03X2539894Y6194462I64654J0D01*
G03X2512942Y6149696I23702J-44767D01*
G01X2512942Y6039696D01*
G03X2517942Y6017752I50654J0D01*
G01X2517942Y5924189D01*
G03X2502618Y5887890I35330J-36299D01*
G01X2502618Y5801489D01*
G03X2517942Y5765191I50654J0D01*
G01X2517942Y5764189D01*
G03X2502618Y5727890I35330J-36299D01*
G01X2502618Y5641489D01*
G03X2553272Y5590835I50654J0D01*
G01X2633919Y5590835D01*
G03X2668932Y5604884I0J50654D01*
G03X2703945Y5590835I35013J36605D01*
G01X2784592Y5590835D01*
G03X2823484Y5609036I0J50654D01*
G01X3344688Y5609036D01*
G03X3398183Y5631194I0J75654D01*
G01X3493497Y5726508D01*
G03X3515656Y5780004I-53495J53495D01*
G01X3515820Y6031556D01*
G03X3528953Y6054350I-35818J35818D01*
G01X3698665Y6054350D01*
G01X3734346Y6018669D01*
G01X3734346Y4450984D01*
G03X3719346Y4415003I35654J-35981D01*
G01X3719346Y4325003D01*
G01X3719347Y4324657D01*
G01X3669288Y4324657D01*
G03X3576211Y4313201I-39286J-64654D01*
G03X3565787Y4220003I53791J-53198D01*
G03X3576211Y4126805I64215J-40000D01*
G03X3669288Y4115349I53791J53198D01*
G01X3706012Y4115349D01*
G03X3705332Y4105998I63975J-9351D01*
G01X3705332Y3953999D01*
G03X3794993Y3894376I64654J0D01*
G03X3869999Y3913009I25006J59623D01*
G03X3955345Y3899862I50000J40990D01*
G01X3955345Y3825254D01*
G01X3725727Y3825254D01*
G03X3666001Y3914669I-59725J24760D01*
G01X3514003Y3914669D01*
G03X3451028Y3864655I0J-64654D01*
G01X3426783Y3864655D01*
G01X2525719Y4765720D01*
G03X2480001Y4784657I-45717J-45717D01*
G01X2349252Y4784657D01*
G03X2305001Y4810659I-44251J-24652D01*
G01X2215001Y4810659D01*
G03X2170751Y4784657I0J-50654D01*
G01X2151548Y4784657D01*
G03X2105661Y4813857I-45886J-21454D01*
G01X2025014Y4813857D01*
G03X1990001Y4799808I0J-50654D01*
G03X1954988Y4813857I-35013J-36605D01*
G01X1874341Y4813857D01*
G03X1856622Y4810657I0J-50654D01*
G01X1370001Y4810657D01*
G03X1305899Y4784105I0J-90654D01*
G01X1028450Y4506656D01*
G01X957669Y4506656D01*
G03X882710Y4575254I-74959J-6656D01*
G01X7650654Y600000D02*
G03X7149346Y600000I-250654J0D01*
G03X7650654Y600000I250654J0D01*
G01X7650654Y7400000D02*
G03X7149346Y7400000I-250654J0D01*
G03X7650654Y7400000I250654J0D01*
G01X2669250Y5989042D02*
G01X2718592Y5989042D01*
G01X2719322Y5989047D01*
G01X2794184Y5914186D01*
G03X2830002Y5899350I35818J35818D01*
G01X3040002Y5899350D01*
G03X3075819Y5914186I0J50654D01*
G01X3089830Y5928197D01*
G03X3104667Y5964015I-35818J35818D01*
G01X3104667Y6045134D01*
G03X3092072Y6078560I-50654J0D01*
G01X3115819Y6102308D01*
G03X3130656Y6138126I-35818J35818D01*
G01X3130656Y6614454D01*
G03X3115819Y6650272I-50654J0D01*
G01X3082541Y6683550D01*
G03X3046724Y6698386I-35818J-35818D01*
G01X2917730Y6698386D01*
G03X2881912Y6683550I0J-50654D01*
G01X2854184Y6655822D01*
G03X2839348Y6620004I35818J-35818D01*
G01X2839348Y6336594D01*
G01X2780655Y6336594D01*
G01X2780655Y6410004D01*
G03X2765819Y6445822I-50654J0D01*
G01X2755819Y6455822D01*
G03X2720001Y6470658I-35818J-35818D01*
G01X2674250Y6470658D01*
G01X2674250Y6489476D01*
G03X2684248Y6519690I-40656J30214D01*
G01X2684248Y6609690D01*
G03X2674250Y6639904I-50654J0D01*
G01X2674250Y6702956D01*
G01X2692134Y6720840D01*
G01X4459894Y6720840D01*
G01X4459894Y4374774D01*
G01X4364654Y4279534D01*
G01X4364654Y4290754D01*
G03X4390654Y4335003I-24654J44249D01*
G01X4390654Y4425003D01*
G03X4375654Y4460984I-50654J0D01*
G01X4375654Y4790005D01*
G03X4353495Y4843501I-75654J0D01*
G01X4261198Y4935798D01*
G03X4207702Y4957957I-53495J-53495D01*
G01X3897308Y4957957D01*
G01X3885654Y4969611D01*
G01X3885654Y6050006D01*
G03X3863495Y6103502I-75654J0D01*
G01X3783497Y6183499D01*
G03X3730002Y6205658I-53495J-53495D01*
G01X3530656Y6205658D01*
G01X3530656Y6619440D01*
G03X3515820Y6655258I-50654J0D01*
G01X3485820Y6685258D01*
G03X3450002Y6700094I-35818J-35818D01*
G01X3240002Y6700094D01*
G03X3204184Y6685258I0J-50654D01*
G01X3167418Y6648492D01*
G03X3152582Y6612674I35818J-35818D01*
G01X3152582Y6076770D01*
G03X3167418Y6040952I50654J0D01*
G01X3204184Y6004186D01*
G03X3240002Y5989350I35818J35818D01*
G01X3364348Y5989350D01*
G01X3364348Y5811341D01*
G01X3313351Y5760343D01*
G01X2823484Y5760343D01*
G03X2784592Y5778544I-38892J-32454D01*
G01X2703945Y5778544D01*
G03X2669250Y5764796I0J-50654D01*
G01X2669250Y5765191D01*
G03X2684573Y5801489I-35330J36299D01*
G01X2684573Y5887890D01*
G03X2669250Y5924189I-50654J0D01*
G01X2669250Y5989042D01*
G01X4813597Y6922148D02*
G01X4535548Y6922148D01*
G01X4535548Y6959459D01*
G03X4528226Y6977136I-25000J0D01*
G01X4357680Y7147682D01*
G03X4340002Y7155004I-17678J-17678D01*
G01X2964640Y7155004D01*
G01X2964640Y7670663D01*
G01X5593989Y7670663D01*
G01X6265003Y6999649D01*
G01X6265003Y5210359D01*
G01X5195657Y4141012D01*
G01X5195657Y4940582D01*
G01X5301329Y5046254D01*
G01X5923788Y5046254D01*
G03X5977283Y5068413I0J75654D01*
G01X6125873Y5217003D01*
G03X6148032Y5270498I-53495J53495D01*
G01X6148032Y6007623D01*
G03X6125873Y6061118I-75654J0D01*
G01X6014346Y6172646D01*
G03X5960850Y6194804I-53495J-53495D01*
G01X5750657Y6194804D01*
G01X5750657Y6619434D01*
G03X5735820Y6655252I-50654J0D01*
G01X5705820Y6685252D01*
G03X5670003Y6700088I-35818J-35818D01*
G01X5460003Y6700088D01*
G03X5424185Y6685252I0J-50654D01*
G01X5387419Y6648486D01*
G03X5372583Y6612668I35818J-35818D01*
G01X5372583Y6076764D01*
G03X5387419Y6040946I50654J0D01*
G01X5424185Y6004180D01*
G03X5460003Y5989344I35818J35818D01*
G01X5584349Y5989344D01*
G01X5584349Y5811334D01*
G01X5533352Y5760337D01*
G01X5043490Y5760337D01*
G03X5004593Y5778544I-38897J-32447D01*
G01X4923945Y5778544D01*
G03X4889250Y5764796I0J-50654D01*
G01X4889250Y5765191D01*
G03X4904574Y5801489I-35330J36299D01*
G01X4904574Y5887890D01*
G03X4889250Y5924189I-50654J0D01*
G01X4889250Y5989036D01*
G01X4938593Y5989036D01*
G01X4939323Y5989041D01*
G01X5014185Y5914180D01*
G03X5050002Y5899344I35818J35818D01*
G01X5260002Y5899344D01*
G03X5295820Y5914180I0J50654D01*
G01X5309831Y5928191D01*
G03X5324667Y5964009I-35818J35818D01*
G01X5324667Y6045128D01*
G03X5312073Y6078554I-50654J0D01*
G01X5335820Y6102302D01*
G03X5350656Y6138120I-35818J35818D01*
G01X5350656Y6614448D01*
G03X5335820Y6650266I-50654J0D01*
G01X5302542Y6683544D01*
G03X5266724Y6698380I-35818J-35818D01*
G01X5137730Y6698380D01*
G03X5101913Y6683544I0J-50654D01*
G01X5074185Y6655816D01*
G03X5059348Y6619998I35818J-35818D01*
G01X5059348Y6336588D01*
G01X5000656Y6336588D01*
G01X5000656Y6409998D01*
G03X4985820Y6445816I-50654J0D01*
G01X4975820Y6455816D01*
G03X4940002Y6470652I-35818J-35818D01*
G01X4894250Y6470652D01*
G01X4894250Y6489476D01*
G03X4904248Y6519690I-40657J30214D01*
G01X4904248Y6609690D01*
G03X4894250Y6639904I-50654J0D01*
G01X4894250Y6761276D01*
G03X4813597Y6922148I-80654J60218D01*
G01X3555002Y2639351D02*
G01X3645002Y2639351D01*
G03X3689251Y2665351I0J50654D01*
G01X3790004Y2665351D01*
G03X3805901Y2667335I0J64654D01*
G01X3764283Y2625717D01*
G01X3763851Y2625281D01*
G03X3719346Y2575002I6149J-50279D01*
G01X3719346Y2530740D01*
G01X3691962Y2503356D01*
G01X3532142Y2503356D01*
G01X3521818Y2513680D01*
G01X3521818Y2651734D01*
G03X3555002Y2639351I33184J38271D01*
G01X4084652Y4140008D02*
G03X4065716Y4185725I-64654J0D01*
G01X3900654Y4350785D01*
G01X3900654Y4415003D01*
G03X3885654Y4450984I-50654J0D01*
G01X3885654Y4482917D01*
G01X4105332Y4263239D01*
G01X4105332Y4106254D01*
G01X4105331Y4105998D01*
G01X4105331Y3953999D01*
G01X4105332Y3953743D01*
G01X4105332Y3596766D01*
G01X4075643Y3567078D01*
G03X4084652Y3599999I-55645J32921D01*
G01X4084652Y3953743D01*
G01X4084653Y3953999D01*
G01X4084653Y4105998D01*
G01X4084652Y4106254D01*
G01X4084652Y4140008D01*
G01X3885654Y4614657D02*
G01X3885654Y4794995D01*
G01X3897308Y4806649D01*
G01X4176366Y4806649D01*
G01X4177358Y4805657D01*
G01X4170005Y4805657D01*
G03X4119351Y4755003I0J-50654D01*
G01X4119351Y4665003D01*
G03X4138927Y4625003I50654J0D01*
G03X4119351Y4585003I31078J-40000D01*
G01X4119351Y4495003D01*
G03X4155344Y4446517I50654J0D01*
G01X4155344Y4396095D01*
G01X3955719Y4595720D01*
G03X3910002Y4614657I-45717J-45717D01*
G01X3885654Y4614657D01*
G01X4309348Y3059789D02*
G03X4294992Y3055641I10650J-63771D01*
G03X4244992Y3055646I-25006J-59623D01*
G03X4169998Y3037008I-24994J-59628D01*
G03X4084652Y3050155I-50000J-40990D01*
G01X4084652Y3263218D01*
G01X4309348Y3487914D01*
G01X4309348Y3059789D01*
G01X4440002Y3174626D02*
G01X4385002Y3174626D01*
G01X4385002Y3891113D01*
G03X4419985Y3913009I-15017J62886D01*
G03X4534639Y3953999I50000J40990D01*
G01X4534639Y4026311D01*
G03X4534751Y4030111I-64542J3800D01*
G01X4534751Y4106407D01*
G01X4563793Y4135449D01*
G01X4690103Y4135449D01*
G03X4735820Y4154386I0J64654D01*
G01X4805722Y4224288D01*
G03X4824659Y4270005I-45717J45717D01*
G01X4824659Y4290754D01*
G03X4840330Y4304349I-24654J44249D01*
G01X5019860Y4304349D01*
G01X5044349Y4279860D01*
G01X5044349Y4111340D01*
G01X4983663Y4050654D01*
G01X4925003Y4050654D01*
G03X4874349Y4000000I0J-50654D01*
G01X4874349Y3955781D01*
G01X4833236Y3914668D01*
G01X4776238Y3914668D01*
G01X4775981Y3914669D01*
G01X4623983Y3914669D01*
G03X4564360Y3825008I0J-64654D01*
G03X4564354Y3775008I59623J-25006D01*
G03X4564360Y3725008I59628J-24994D01*
G03X4564354Y3675008I59623J-25006D01*
G03X4564360Y3625008I59628J-24994D01*
G03X4564354Y3575008I59623J-25006D01*
G03X4565940Y3521532I59628J-24994D01*
G01X4565940Y3478498D01*
G03X4564360Y3425009I58042J-28483D01*
G03X4564354Y3375009I59623J-25006D01*
G03X4564360Y3325009I59628J-24994D01*
G03X4564354Y3275009I59623J-25006D01*
G03X4564360Y3225009I59628J-24994D01*
G03X4564354Y3175009I59623J-25006D01*
G03X4623983Y3085361I59628J-24994D01*
G01X4775981Y3085361D01*
G01X4776238Y3085362D01*
G01X4895003Y3085362D01*
G01X4895003Y3060357D01*
G01X4889295Y3054650D01*
G01X4579739Y3054650D01*
G03X4565694Y3075703I-59741J-24643D01*
G01X4485698Y3155698D01*
G03X4440002Y3174626I-45696J-45696D01*
G01X4795349Y2978996D02*
G01X4795349Y2836783D01*
G01X4783022Y2824456D01*
G01X4546983Y2824456D01*
G01X4534639Y2836800D01*
G01X4534639Y2843763D01*
G01X4534639Y2844019D01*
G01X4534639Y2978996D01*
G01X4795349Y2978996D01*
G01X4535548Y4626983D02*
G01X4535548Y6720840D01*
G01X4715058Y6720840D01*
G01X4732943Y6702956D01*
G01X4732943Y6639911D01*
G03X4722940Y6609690I40651J-30221D01*
G01X4722940Y6519690D01*
G03X4732943Y6489470I50654J0D01*
G01X4732943Y6309692D01*
G03X4748943Y6272747I50654J0D01*
G01X4748943Y6230460D01*
G03X4759895Y6194456I64654J0D01*
G03X4732943Y6149690I23702J-44767D01*
G01X4732943Y6039690D01*
G03X4737943Y6017746I50654J0D01*
G01X4737943Y5924189D01*
G03X4722619Y5887890I35330J-36299D01*
G01X4722619Y5801489D01*
G03X4737943Y5765190I50654J0D01*
G01X4737943Y5764189D01*
G03X4722619Y5727890I35330J-36299D01*
G01X4722619Y5641489D01*
G03X4773273Y5590835I50654J0D01*
G01X4853920Y5590835D01*
G03X4888933Y5604884I0J50654D01*
G03X4923945Y5590835I35013J36605D01*
G01X5004593Y5590835D01*
G03X5043480Y5609029I0J50654D01*
G01X5564689Y5609029D01*
G03X5618184Y5631188I0J75654D01*
G01X5713498Y5726502D01*
G03X5735657Y5779998I-53495J53495D01*
G01X5735820Y6031550D01*
G03X5744679Y6043496I-35818J35818D01*
G01X5929514Y6043496D01*
G01X5996724Y5976286D01*
G01X5996724Y5301835D01*
G01X5892451Y5197562D01*
G01X5269992Y5197562D01*
G03X5216497Y5175403I0J-75654D01*
G01X5066507Y5025414D01*
G03X5044349Y4971919I53495J-53495D01*
G01X5044349Y4666945D01*
G01X5042061Y4664657D01*
G01X4600002Y4664657D01*
G03X4554285Y4645720I0J-64654D01*
G01X4535548Y4626983D01*
G01X4551963Y4264757D02*
G01X4575720Y4288513D01*
G03X4594656Y4334231I-45717J45717D01*
G01X4594656Y4503222D01*
G01X4626783Y4535349D01*
G01X5042061Y4535349D01*
G01X5044349Y4533061D01*
G01X5044349Y4480146D01*
G01X5019860Y4455657D01*
G01X4840330Y4455657D01*
G03X4800005Y4475657I-40326J-30654D01*
G01X4720005Y4475657D01*
G03X4669351Y4425003I0J-50654D01*
G01X4669351Y4335003D01*
G03X4691617Y4293051I50654J0D01*
G01X4663322Y4264757D01*
G01X4551963Y4264757D01*
G01X5640919Y4479283D02*
G03X5638457Y4474657I43424J-26080D01*
G01X5636292Y4474657D01*
G01X5640919Y4479283D01*
G04 Copper End*

G04 PolygonModel Start*
G36*
G01X2760002Y6150004D02*
G01X2820001Y6150004D01*
G01X2910002Y6060004D01*
G01X3039143Y6060004D01*
G01X3054013Y6045134D01*
G01X3054013Y5964015D01*
G01X3040002Y5950004D01*
G01X2830001Y5950004D01*
G01X2750002Y6030004D01*
G01X2750001Y6140004D01*
G01X2760002Y6150004D01*
G37*
G36*
G01X4980002Y6149998D02*
G01X5040002Y6149998D01*
G01X5130002Y6059998D01*
G01X5259144Y6059998D01*
G01X5274014Y6045128D01*
G01X5274014Y5964009D01*
G01X5260002Y5949997D01*
G01X5050002Y5949997D01*
G01X4970002Y6029998D01*
G01X4970002Y6139998D01*
G01X4980002Y6149998D01*
G37*
G36*
G01X2408177Y2308604D02*
G01X2446782Y2269999D01*
G01X2446782Y2042412D01*
G01X2401570Y1997200D01*
G01X2054860Y1997200D01*
G01X2020824Y2031236D01*
G01X2020824Y2268980D01*
G01X2060448Y2308604D01*
G01X2408177Y2308604D01*
G37*
G36*
G01X3240002Y6649440D02*
G01X3203236Y6612674D01*
G01X3203236Y6076770D01*
G01X3240002Y6040004D01*
G01X3452632Y6040004D01*
G01X3480002Y6067373D01*
G01X3480002Y6619440D01*
G01X3450002Y6649440D01*
G01X3240002Y6649440D01*
G37*
G36*
G01X2650001Y6420004D02*
G01X2720001Y6420004D01*
G01X2730001Y6410004D01*
G01X2730001Y6302130D01*
G01X2746191Y6285940D01*
G01X2865938Y6285940D01*
G01X2890002Y6310004D01*
G01X2890002Y6620004D01*
G01X2917729Y6647732D01*
G01X3046724Y6647732D01*
G01X3080002Y6614454D01*
G01X3080002Y6138126D01*
G01X3044599Y6102723D01*
G01X2917282Y6102723D01*
G01X2840001Y6180004D01*
G01X2705298Y6180004D01*
G01X2645589Y6239712D01*
G01X2645589Y6415592D01*
G01X2650001Y6420004D01*
G37*
G36*
G01X5460003Y6649434D02*
G01X5423237Y6612668D01*
G01X5423237Y6076764D01*
G01X5460003Y6039998D01*
G01X5672633Y6039998D01*
G01X5700003Y6067367D01*
G01X5700003Y6619434D01*
G01X5670003Y6649434D01*
G01X5460003Y6649434D01*
G37*
G36*
G01X4870002Y6419998D02*
G01X4940002Y6419998D01*
G01X4950002Y6409998D01*
G01X4950002Y6302124D01*
G01X4966192Y6285934D01*
G01X5085939Y6285934D01*
G01X5110002Y6309998D01*
G01X5110002Y6619998D01*
G01X5137730Y6647726D01*
G01X5266725Y6647726D01*
G01X5300003Y6614448D01*
G01X5300003Y6138120D01*
G01X5264600Y6102717D01*
G01X5137283Y6102717D01*
G01X5060002Y6179998D01*
G01X4925298Y6179998D01*
G01X4865590Y6239706D01*
G01X4865590Y6415586D01*
G01X4870002Y6419998D01*
G37*

G04 Pad Start*
G54D11*
G01X1585007Y7390081D03*
G54D12*
G01X1434995Y7389928D03*
G54D13*
G01X3600002Y2730004D03*
G01X3600002Y2590000D03*
G54D14*
G01X3810000Y2530002D03*
G01X3950005Y2530002D03*
G54D16*
G01X4140002Y2400002D03*
G01X4340002Y2400002D03*
G54D17*
G01X4260005Y2590002D03*
G01X4120000Y2590002D03*
G54D13*
G01X4540002Y2500004D03*
G01X4540002Y2359999D03*
G54D18*
G01X1771489Y6621495D03*
G01X1771489Y6821494D03*
G01X1981489Y6621495D03*
G01X1981489Y6821494D03*
G54D13*
G01X2983596Y6144699D03*
G01X2983596Y6004695D03*
G54D19*
G01X3313596Y6124690D03*
G01X3313596Y5924690D03*
G54D13*
G01X5203597Y6144692D03*
G01X5203597Y6004687D03*
G54D19*
G01X5523597Y6124690D03*
G01X5523597Y5924690D03*
G54D20*
G01X4750003Y2160744D03*
G01X4750003Y2479260D03*
G54D21*
G01X3769986Y4029999D03*
G01X3819999Y4029999D03*
G01X3869986Y4029999D03*
G01X3919999Y4029999D03*
G01X3969986Y4029999D03*
G01X4019999Y4029999D03*
G01X4069986Y4029999D03*
G01X4119998Y4029999D03*
G01X4169986Y4029999D03*
G01X4219998Y4029999D03*
G01X4269985Y4029999D03*
G01X4319998Y4029999D03*
G01X4369985Y4029999D03*
G01X4419998Y4029999D03*
G01X4469985Y4029999D03*
G01X4519998Y4029999D03*
G54D22*
G01X4699982Y3850014D03*
G01X4699982Y3800002D03*
G01X4699982Y3750014D03*
G01X4699982Y3700002D03*
G01X4699982Y3650015D03*
G01X4699982Y3600002D03*
G01X4699982Y3550015D03*
G01X4699982Y3500002D03*
G01X4699982Y3450015D03*
G01X4699982Y3400002D03*
G01X4699982Y3350015D03*
G01X4699982Y3300003D03*
G01X4699982Y3250015D03*
G01X4699982Y3200003D03*
G01X4699982Y3150016D03*
G01X4699982Y3100003D03*
G54D21*
G01X4519998Y2920019D03*
G01X4469985Y2920019D03*
G01X4419998Y2920019D03*
G01X4369985Y2920019D03*
G01X4319998Y2920019D03*
G01X4269985Y2920019D03*
G01X4219998Y2920019D03*
G01X4169986Y2920019D03*
G01X4119998Y2920019D03*
G01X4069986Y2920019D03*
G01X4019999Y2920019D03*
G01X3969986Y2920019D03*
G01X3919999Y2920019D03*
G01X3869986Y2920019D03*
G01X3819999Y2920019D03*
G01X3769986Y2920019D03*
G54D22*
G01X3590002Y3100003D03*
G01X3590002Y3150016D03*
G01X3590002Y3200003D03*
G01X3590002Y3250015D03*
G01X3590002Y3300003D03*
G01X3590002Y3350015D03*
G01X3590002Y3400002D03*
G01X3590002Y3450015D03*
G01X3590002Y3500002D03*
G01X3590002Y3550015D03*
G01X3590002Y3600002D03*
G01X3590002Y3650015D03*
G01X3590002Y3700002D03*
G01X3590002Y3750014D03*
G01X3590002Y3800002D03*
G01X3590002Y3850014D03*
G54D23*
G01X4813597Y6364692D03*
G01X4908593Y6364692D03*
G01X5003589Y6364692D03*
G01X5003589Y6094690D03*
G01X4908593Y6094690D03*
G01X4813597Y6094690D03*
G01X2593596Y6364698D03*
G01X2688592Y6364698D03*
G01X2783588Y6364698D03*
G01X2783588Y6094696D03*
G01X2688592Y6094696D03*
G01X2593596Y6094696D03*
G54D24*
G01X2980803Y6474690D03*
G01X3386390Y6474690D03*
G54D25*
G01X5200803Y6474690D03*
G01X5606390Y6474690D03*
G54D26*
G01X2065338Y4720003D03*
G01X1914665Y4720003D03*
G01X2065338Y4390003D03*
G01X1914665Y4390003D03*
G01X2065338Y4060003D03*
G01X1914665Y4060003D03*
G01X2065338Y3730002D03*
G01X1914665Y3730002D03*
G01X2065338Y3400002D03*
G01X1914665Y3400002D03*
G01X2065338Y3070002D03*
G01X1914665Y3070002D03*
G01X2065338Y2740002D03*
G01X1914665Y2740002D03*
G01X2065338Y2410002D03*
G01X1914665Y2410002D03*
G01X2065338Y2080002D03*
G01X1914665Y2080002D03*
G54D27*
G01X3016630Y7410004D03*
G01X2403373Y7410004D03*
G54D28*
G01X2593596Y5844690D03*
G01X2744269Y5844690D03*
G54D26*
G01X2744269Y5684689D03*
G01X2593596Y5684689D03*
G54D28*
G01X4813596Y5844690D03*
G01X4964269Y5844690D03*
G54D26*
G01X4964269Y5684689D03*
G01X4813596Y5684689D03*
G54D29*
G01X4970003Y3960000D03*
G01X4970003Y4100005D03*
G54D17*
G01X4760005Y4380003D03*
G01X4620000Y4380003D03*
G01X4210005Y4540003D03*
G01X4070000Y4540003D03*
G54D14*
G01X3810000Y4370003D03*
G01X3950005Y4370003D03*
G01X4300000Y4380003D03*
G01X4440005Y4380003D03*
G54D13*
G01X4960003Y2500004D03*
G01X4960003Y2359999D03*
G54D17*
G01X4210005Y4710003D03*
G01X4070000Y4710003D03*
G54D30*
G01X800000Y4416002D03*
G54D31*
G01X800000Y4162002D03*
G01X800000Y3908002D03*
G01X800000Y3654002D03*
G01X800000Y3400002D03*
G01X800000Y3146002D03*
G01X800000Y2892002D03*
G01X800000Y2638002D03*
G01X800000Y2384002D03*
G54D32*
G01X7160004Y4974002D03*
G54D33*
G01X7160004Y4720002D03*
G01X7160004Y4466002D03*
G01X7160004Y4212002D03*
G01X7160004Y3958002D03*
G01X7160004Y3704002D03*
G01X7160004Y3450002D03*
G01X7160004Y3196002D03*
G01X7160004Y2942002D03*
G01X7160004Y2688002D03*
G01X7160004Y2434002D03*
G01X7160004Y2180002D03*
G01X7160004Y1926002D03*
G54D17*
G01X4953599Y6564690D03*
G01X4813594Y6564690D03*
G54D14*
G01X2593594Y6564690D03*
G01X2733599Y6564690D03*
G54D10*
G01X3630002Y4180003D03*
G01X3630002Y4260003D03*
G01X3440002Y6130004D03*
G01X5650003Y6120004D03*
G01X2221489Y6821497D03*
G01X2210001Y6620004D03*
G01X3180002Y7330004D03*
G54D29*
G01X2260001Y2269999D03*
G01X2260001Y2410004D03*
G01X2260001Y2600000D03*
G01X2260001Y2740004D03*
G01X2260001Y2930000D03*
G01X2260001Y3070005D03*
G01X2260001Y3260000D03*
G01X2260001Y3400005D03*
G01X2260001Y3590000D03*
G01X2260001Y3730005D03*
G01X2260001Y3920000D03*
G01X2260001Y4060005D03*
G01X2260001Y4250000D03*
G01X2260001Y4390005D03*
G01X2260001Y4580000D03*
G01X2260001Y4720005D03*
G54D26*
G01X5875340Y4410003D03*
G01X5724667Y4410003D03*
G01X5875340Y4250003D03*
G01X5724667Y4250003D03*
G01X5875340Y4090003D03*
G01X5724667Y4090003D03*
G01X5875340Y3930003D03*
G01X5724667Y3930003D03*
G01X5875340Y3770003D03*
G01X5724667Y3770003D03*
G01X5875340Y3610002D03*
G01X5724667Y3610002D03*
G01X5875340Y3450002D03*
G01X5724667Y3450002D03*
G01X5875340Y3290002D03*
G01X5724667Y3290002D03*
G01X5875340Y3130002D03*
G01X5724667Y3130002D03*
G01X5875340Y2970002D03*
G01X5724667Y2970002D03*
G01X5875340Y2810002D03*
G01X5724667Y2810002D03*
G01X5875340Y2650002D03*
G01X5724667Y2650002D03*
G01X5875340Y2490002D03*
G01X5724667Y2490002D03*
G04 Pad End*

G04 Via Start*
G54D34*
G01X3600002Y2500002D03*
G01X3700569Y2590000D03*
G01X4610002Y2920019D03*
G01X3950005Y2421483D03*
G01X4340002Y2280002D03*
G01X4452311Y2359999D03*
G01X4350002Y2590002D03*
G01X4260005Y2680000D03*
G01X4750003Y2276804D03*
G01X4625307Y2359999D03*
G01X4874305Y2359999D03*
G01X4540002Y2270002D03*
G01X4750003Y2040002D03*
G01X4870003Y2160744D03*
G01X4630002Y2160744D03*
G01X5050005Y2359999D03*
G01X4960003Y2280002D03*
G01X4860003Y3070002D03*
G01X4440002Y4460003D03*
G01X2150001Y2270002D03*
G01X2369997Y2270002D03*
G01X2150004Y2600000D03*
G01X2369999Y2600000D03*
G01X2150004Y2930000D03*
G01X2369999Y2930000D03*
G01X2150004Y3260000D03*
G01X2369999Y3260000D03*
G01X2150004Y3590000D03*
G01X2369999Y3590000D03*
G01X2150004Y3920000D03*
G01X2369999Y3920000D03*
G01X2150004Y4250000D03*
G01X2369999Y4250000D03*
G01X2150004Y4580000D03*
G01X2369999Y4580000D03*
G01X4868008Y4100008D03*
G01X4586643Y4030001D03*
G01X4620002Y4480000D03*
G01X2744269Y5935737D03*
G01X2836478Y5844690D03*
G01X3208509Y5844690D03*
G01X3313596Y5813598D03*
G01X3200002Y5970004D03*
G01X2733599Y6660006D03*
G01X2820001Y6564692D03*
G01X2783588Y6463501D03*
G01X1980001Y6510004D03*
G01X1770001Y6510004D03*
G01X2095235Y6622260D03*
G01X1657745Y6625238D03*
G01X3970002Y4710003D03*
G01X4070002Y4810003D03*
G01X4015229Y4304779D03*
G01X4964269Y5935731D03*
G01X5056479Y5844684D03*
G01X5428510Y5844684D03*
G01X5533597Y5813592D03*
G01X5420003Y5969998D03*
G01X4953599Y6660000D03*
G01X5040002Y6564686D03*
G01X5003589Y6463495D03*
G01X5247418Y5844684D03*
G01X2260001Y2181262D03*
G01X2158744Y2080004D03*
G01X3920002Y3860002D03*
G01X1525889Y7570575D03*
G01X1430001Y7120004D03*
G01X4570003Y4270005D03*
G01X4734545Y4030001D03*
G01X1880001Y6510004D03*
G01X3178516Y7410004D03*
G01X3180002Y7570005D03*
G01X3177030Y7250004D03*
G01X3942157Y7570005D03*
G01X3940671Y7410004D03*
G01X3939185Y7250004D03*
G01X4704312Y7570005D03*
G01X4702826Y7410004D03*
G01X4701340Y7250004D03*
G01X5466467Y7570005D03*
G01X5464981Y7410004D03*
G01X5463495Y7250004D03*
G01X6103644Y6890004D03*
G01X6102158Y6730004D03*
G01X6100672Y6570004D03*
G01X5053643Y7030004D03*
G01X5052157Y6870004D03*
G01X5050671Y6710004D03*
G01X4643643Y6670004D03*
G01X4642157Y6510004D03*
G01X4640671Y6350004D03*
G01X4643643Y5790004D03*
G01X4642157Y5630003D03*
G01X4640671Y5470004D03*
G01X4629612Y5042303D03*
G01X4628126Y4882303D03*
G01X4626640Y4722303D03*
G01X4988643Y5042303D03*
G01X4987157Y4882303D03*
G01X4985672Y4722303D03*
G01X5875100Y6004684D03*
G01X5873614Y5844684D03*
G01X5872128Y5684684D03*
G01X5652574Y5558238D03*
G01X5651088Y5398238D03*
G01X5649602Y5238237D03*
G01X5153643Y5560004D03*
G01X5152157Y5400003D03*
G01X5150671Y5240003D03*
G01X6209294Y6076944D03*
G01X6207808Y5916944D03*
G01X6206322Y5756944D03*
G01X6201980Y5522657D03*
G01X6200494Y5362657D03*
G01X6199009Y5202656D03*
G01X5217813Y4579441D03*
G01X5216327Y4419442D03*
G01X5214841Y4259441D03*
G01X5483643Y5010003D03*
G01X5482157Y4850003D03*
G01X5480672Y4690003D03*
G01X5793643Y5010003D03*
G01X5792158Y4850003D03*
G01X4463643Y3830003D03*
G01X4462157Y3670003D03*
G01X4460671Y3510002D03*
G01X4462157Y3370002D03*
G01X4460671Y3210002D03*
G01X4760003Y2920002D03*
G01X5820003Y4560003D03*
G01X2630001Y4800003D03*
G01X3210002Y4140002D03*
G01X3780002Y3840002D03*
G01X4321488Y6670004D03*
G01X3871488Y6670004D03*
G01X3141487Y6710004D03*
G01X3140002Y6550004D03*
G01X3138516Y6390004D03*
G01X3137030Y6230004D03*
G01X3135544Y6070004D03*
G01X3029487Y5844690D03*
G01X4321488Y6200004D03*
G01X3870002Y6200004D03*
G01X4100002Y5810004D03*
G01X4100002Y5460004D03*
G01X4100002Y5040003D03*
G01X3960002Y4600003D03*
G01X1280001Y6650004D03*
G01X2260001Y6160004D03*
G01X2420001Y6640003D03*
G01X1810001Y5700003D03*
G01X1808515Y5180003D03*
G01X2260001Y5180003D03*
G01X2250001Y5700003D03*
G01X3190002Y5390003D03*
G01X3188516Y4920003D03*
G01X3640002Y4920003D03*
G01X3640002Y5390003D03*
G01X3090002Y4440003D03*
G01X3540002Y4440003D03*
G01X3590002Y4040003D03*
G01X1320001Y5710004D03*
G01X1320001Y6180004D03*
G01X1320001Y5200003D03*
G01X720000Y6230004D03*
G01X718514Y5760004D03*
G01X720000Y5250003D03*
G01X718514Y4780003D03*
G01X190000Y7250005D03*
G01X190000Y7720005D03*
G01X190000Y6270004D03*
G01X190000Y6740004D03*
G01X200000Y5280003D03*
G01X200000Y5750004D03*
G01X200000Y4300003D03*
G01X200000Y4770003D03*
G01X190000Y3310002D03*
G01X190000Y3780003D03*
G01X190000Y2330002D03*
G01X190000Y2800002D03*
G01X190000Y1300001D03*
G01X190000Y1770002D03*
G01X190000Y320001D03*
G01X190000Y790001D03*
G01X7730004Y7250004D03*
G01X7690004Y6270004D03*
G01X7690004Y6740004D03*
G01X7700004Y5280003D03*
G01X7700004Y5750004D03*
G01X7700004Y4300003D03*
G01X7700004Y4770003D03*
G01X7690004Y3310002D03*
G01X7690004Y3780003D03*
G01X7690004Y2330002D03*
G01X7690004Y2800002D03*
G01X7690004Y1300001D03*
G01X7690004Y1770002D03*
G01X7720004Y250000D03*
G01X7690004Y830000D03*
G01X650000Y210000D03*
G01X1620001Y240001D03*
G01X1150000Y240001D03*
G01X2610001Y250001D03*
G01X2140001Y250001D03*
G01X3590002Y250001D03*
G01X3120002Y250001D03*
G01X4580003Y240001D03*
G01X4110002Y240001D03*
G01X5560003Y240001D03*
G01X5090003Y240001D03*
G01X6590004Y240001D03*
G01X6120003Y240001D03*
G01X7100004Y240001D03*
G01X1040000Y7850005D03*
G01X570000Y7850005D03*
G01X2020001Y7850005D03*
G01X1550001Y7850005D03*
G01X3010002Y7860005D03*
G01X2540001Y7860005D03*
G01X3990002Y7860005D03*
G01X3520002Y7860005D03*
G01X4980003Y7850005D03*
G01X4510002Y7850005D03*
G01X5960003Y7850005D03*
G01X5490003Y7850005D03*
G01X6990004Y7850005D03*
G01X6520003Y7850005D03*
G01X715000Y1025001D03*
G01X1695001Y1025001D03*
G01X1225001Y1025001D03*
G01X2685001Y1035001D03*
G01X2215001Y1035001D03*
G01X3665002Y1035001D03*
G01X3195002Y1035001D03*
G01X4655003Y1025001D03*
G01X4185002Y1025001D03*
G01X5635003Y1025001D03*
G01X5165003Y1025001D03*
G01X6665004Y1025001D03*
G01X6195003Y1025001D03*
G01X7175004Y1025001D03*
G01X685000Y1645001D03*
G01X1665001Y1645001D03*
G01X1195001Y1645001D03*
G01X2655002Y1655002D03*
G01X2185001Y1655002D03*
G01X3635002Y1655002D03*
G01X3165002Y1655002D03*
G01X4625002Y1645001D03*
G01X4155002Y1645001D03*
G01X5605003Y1645001D03*
G01X5135003Y1645001D03*
G01X6635003Y1645001D03*
G01X6165003Y1645001D03*
G01X7145004Y1645001D03*
G01X7770004Y7840004D03*
G01X7255004Y6300004D03*
G01X7255004Y6770004D03*
G01X7265004Y5310003D03*
G01X7265004Y5780004D03*
G01X6765004Y7320004D03*
G01X6765004Y6340004D03*
G01X6765004Y6810004D03*
G01X6775004Y5350004D03*
G01X6775004Y5820004D03*
G01X6255003Y7520005D03*
G01X3445002Y2830002D03*
G01X3055002Y2460002D03*
G01X2655002Y2020002D03*
G01X3455002Y2090002D03*
G01X4135002Y2090002D03*
G01X5625003Y2090002D03*
G01X5015003Y2900002D03*
G01X5165003Y2660002D03*
G01X5275003Y2350002D03*
G01X6195003Y4770003D03*
G01X6475004Y5080003D03*
G01X6225003Y2120002D03*
G01X4169986Y3110002D03*
G01X4222380Y3292379D03*
G01X4420002Y4840003D03*
G01X4420002Y5280003D03*
G01X4420002Y5730004D03*
G01X2020001Y7000004D03*
G01X2710001Y7000004D03*
G01X3370002Y7000004D03*
G01X4030002Y7000004D03*
G01X830000Y6880004D03*
G01X1160001Y7390004D03*
G01X1170001Y7170004D03*
G01X1170001Y7640004D03*
G01X4970273Y4235721D03*
G01X4090002Y3870004D03*
G01X4090002Y3660004D03*
G01X4069986Y4250024D03*
G01X5361488Y6710004D03*
G01X5360002Y6550004D03*
G01X5358516Y6390004D03*
G01X5355545Y6070004D03*
G01X5357030Y6230004D03*
G01X3350002Y6710004D03*
G01X2900002Y6710004D03*
G01X3570002Y6670004D03*
G01X3560002Y6500004D03*
G01X3550002Y6370004D03*
G01X3620002Y6210003D03*
G01X3620002Y5980003D03*
G01X5550003Y6720004D03*
G01X5760003Y6660004D03*
G01X5760003Y6500004D03*
G01X5750003Y6340003D03*
G01X5850003Y6200003D03*
G01X6050003Y6150003D03*
G04 Via End*

G04 Track Start*
G54D35*
G01X1914665Y3730002D02*
G01X1580001Y3730002D01*
G01X1504001Y3654002D01*
G01X1914665Y4720003D02*
G01X1370001Y4720003D01*
G01X1066000Y4416002D01*
G01X1914665Y4390003D02*
G01X1430001Y4390003D01*
G01X1202000Y4162002D01*
G01X1914665Y4060003D02*
G01X1470001Y4060003D01*
G01X1318000Y3908002D01*
G01X1370001Y2080002D02*
G01X1066000Y2384002D01*
G01X1914665Y2080002D02*
G01X1370001Y2080002D01*
G01X1430001Y2410002D02*
G01X1202000Y2638002D01*
G01X1914665Y2410002D02*
G01X1430001Y2410002D01*
G01X1470001Y2740002D02*
G01X1318000Y2892002D01*
G01X1914665Y2740002D02*
G01X1470001Y2740002D01*
G01X1580001Y3070002D02*
G01X1504001Y3146002D01*
G01X1914665Y3070002D02*
G01X1580001Y3070002D01*
G54D36*
G01X2065338Y3400002D02*
G01X2260001Y3400002D01*
G01X3590002Y3400002D01*
G01X2810002Y3500002D02*
G01X3590002Y3500002D01*
G01X2065338Y3730002D02*
G01X2260001Y3730002D01*
G01X2580001Y3730002D01*
G01X2810002Y3500002D01*
G01X2980002Y3600002D02*
G01X3590002Y3600002D01*
G01X2065338Y4060003D02*
G01X2260001Y4060003D01*
G01X2520001Y4060003D01*
G01X2980002Y3600002D01*
G01X3180003Y3700002D02*
G01X3590002Y3700002D01*
G01X2065338Y4390003D02*
G01X2260001Y4390003D01*
G01X2490001Y4390003D01*
G01X3180003Y3700002D01*
G01X3400003Y3800002D02*
G01X3590002Y3800002D01*
G01X2065338Y4720003D02*
G01X2260001Y4720003D01*
G01X2480001Y4720003D01*
G01X3400003Y3800002D01*
G01X2580001Y3070002D02*
G01X2810002Y3300003D01*
G01X3590002Y3300003D01*
G01X2260001Y3070002D02*
G01X2580001Y3070002D01*
G01X2520001Y2740002D02*
G01X2980002Y3200003D01*
G01X3590002Y3200003D01*
G01X2260001Y2740002D02*
G01X2520001Y2740002D01*
G01X2490001Y2410002D02*
G01X3180003Y3100003D01*
G01X3590002Y3100003D01*
G01X2260001Y2410002D02*
G01X2490001Y2410002D01*
G01X4699982Y3450015D02*
G01X5724654Y3450015D01*
G01X5875340Y3450002D02*
G01X7160004Y3450002D01*
G01X5875340Y3610002D02*
G01X6550004Y3610002D01*
G01X6644003Y3704002D01*
G01X7160004Y3704002D01*
G01X5875340Y3930003D02*
G01X6370004Y3930003D01*
G01X6652003Y4212002D01*
G01X7160004Y4212002D01*
G01X5875340Y4090003D02*
G01X6300003Y4090003D01*
G01X6676003Y4466002D01*
G01X7160004Y4466002D01*
G01X5875340Y4410003D02*
G01X6160003Y4410003D01*
G01X6724003Y4974002D01*
G01X7160004Y4974002D01*
G01X5875340Y4250003D02*
G01X6230003Y4250003D01*
G01X6700003Y4720002D01*
G01X7160004Y4720002D01*
G01X5875340Y3770003D02*
G01X6460004Y3770003D01*
G01X6648003Y3958002D01*
G01X7160004Y3958002D01*
G01X6160003Y2490002D02*
G01X6724003Y1926002D01*
G01X5875340Y2490002D02*
G01X6160003Y2490002D01*
G01X6724003Y1926002D02*
G01X7160004Y1926002D01*
G01X6230003Y2650002D02*
G01X6700003Y2180002D01*
G01X5875340Y2650002D02*
G01X6230003Y2650002D01*
G01X6700003Y2180002D02*
G01X7160004Y2180002D01*
G01X6300003Y2810002D02*
G01X6676003Y2434002D01*
G01X5875340Y2810002D02*
G01X6300003Y2810002D01*
G01X6676003Y2434002D02*
G01X7160004Y2434002D01*
G01X6370004Y2970002D02*
G01X6652003Y2688002D01*
G01X5875340Y2970002D02*
G01X6370004Y2970002D01*
G01X6652003Y2688002D02*
G01X7160004Y2688002D01*
G01X6460004Y3130002D02*
G01X6648003Y2942002D01*
G01X5875340Y3130002D02*
G01X6460004Y3130002D01*
G01X6648003Y2942002D02*
G01X7160004Y2942002D01*
G01X6550004Y3290002D02*
G01X6644003Y3196002D01*
G01X5875340Y3290002D02*
G01X6550004Y3290002D01*
G01X6644003Y3196002D02*
G01X7160004Y3196002D01*
G54D35*
G01X1066000Y4416002D02*
G01X800000Y4416002D01*
G01X1202000Y4162002D02*
G01X800000Y4162002D01*
G01X1318000Y3908002D02*
G01X800000Y3908002D01*
G01X1504001Y3654002D02*
G01X800000Y3654002D01*
G01X800000Y3400002D02*
G01X1914665Y3400002D01*
G01X1504001Y3146002D02*
G01X800000Y3146002D01*
G01X1318000Y2892002D02*
G01X800000Y2892002D01*
G01X1202000Y2638002D02*
G01X800000Y2638002D01*
G01X1066000Y2384002D02*
G01X800000Y2384002D01*
G54D36*
G01X4699982Y3300003D02*
G01X5299997Y3300003D01*
G01X5629997Y2970002D01*
G01X5724667Y2970002D01*
G01X4699982Y3250015D02*
G01X5189984Y3250015D01*
G01X5629997Y2810002D01*
G01X5724667Y2810002D01*
G01X4699982Y3200003D02*
G01X5079996Y3200003D01*
G01X5629997Y2650002D01*
G01X5724667Y2650002D01*
G01X4699982Y3150016D02*
G01X4969983Y3150016D01*
G01X5629997Y2490002D01*
G01X5724667Y2490002D01*
G01X5714667Y3600002D02*
G01X5724667Y3610002D01*
G01X5723529Y3768865D02*
G01X5724667Y3770003D01*
G01X4699982Y3550015D02*
G01X5510015Y3550015D01*
G01X5560002Y3600002D01*
G01X5714667Y3600002D01*
G01X4699982Y3600002D02*
G01X5400002Y3600002D01*
G01X5568864Y3768865D01*
G01X5723529Y3768865D01*
G01X4699982Y3650015D02*
G01X5290015Y3650015D01*
G01X5570003Y3930003D01*
G01X5724667Y3930003D01*
G01X4699982Y3400002D02*
G01X5519997Y3400002D01*
G01X5629997Y3290002D01*
G01X5724667Y3290002D01*
G01X4699982Y3350015D02*
G01X5409984Y3350015D01*
G01X5629997Y3130002D01*
G01X5724667Y3130002D01*
G01X4699982Y3700002D02*
G01X5180002Y3700002D01*
G01X5570003Y4090003D01*
G01X5724667Y4090003D01*
G01X4699982Y3750014D02*
G01X5070014Y3750014D01*
G01X5570003Y4250003D01*
G01X5724667Y4250003D01*
G01X4699982Y3800002D02*
G01X4960002Y3800002D01*
G01X5570003Y4410003D01*
G01X5724667Y4410003D01*
G01X3280019Y2920019D02*
G01X3769986Y2920019D01*
G01X2629999Y2269999D02*
G01X3280019Y2920019D01*
G01X3700569Y2590000D02*
G01X3600002Y2590000D01*
G01X3869986Y2920019D02*
G01X3869986Y2809986D01*
G01X3790004Y2730004D02*
G01X3600002Y2730004D01*
G01X3869986Y2809986D02*
G01X3790004Y2730004D01*
G01X3919999Y2920019D02*
G01X3919999Y2789430D01*
G01X3720569Y2590000D02*
G01X3700569Y2590000D01*
G01X3919999Y2789430D02*
G01X3720569Y2590000D01*
G01X4019999Y2789998D02*
G01X4019999Y2920019D01*
G01X3969986Y2785141D02*
G01X3992564Y2762563D01*
G01X4019999Y2789998D01*
G01X3969986Y2785141D02*
G01X3969986Y2920019D01*
G01X3969986Y2785141D02*
G01X3969986Y2739986D01*
G01X3992564Y2762563D01*
G01X3969986Y2739986D02*
G01X3810000Y2580000D01*
G01X3810000Y2530002D01*
G01X4169986Y2920019D02*
G01X4169986Y2770019D01*
G01X4260005Y2680000D01*
G01X4260005Y2590002D01*
G01X4119998Y2920019D02*
G01X4120000Y2590002D01*
G01X4120000Y2420005D01*
G01X4140002Y2400002D01*
G01X4750003Y2600002D02*
G01X4750003Y2479260D01*
G01X4519998Y2920019D02*
G01X4610002Y2920019D01*
G01X4380004Y2359999D02*
G01X4340002Y2400002D01*
G01X4069986Y2920019D02*
G01X4069986Y2739986D01*
G01X3950005Y2620004D01*
G01X3950005Y2530002D01*
G01X3950005Y2309999D02*
G01X4010002Y2250002D01*
G01X3950005Y2530002D02*
G01X3950005Y2421483D01*
G01X3950005Y2309999D01*
G01X4010002Y2250002D02*
G01X4310002Y2250002D01*
G01X4340002Y2280002D01*
G01X4340002Y2400002D01*
G01X4540002Y2359999D02*
G01X4452311Y2359999D01*
G01X4380004Y2359999D01*
G01X4219998Y2820009D02*
G01X4219998Y2920019D01*
G01X4540002Y2500004D02*
G01X4219998Y2820009D01*
G01X4750003Y2160744D02*
G01X4750003Y2276804D01*
G01X4750003Y2359999D01*
G01X4625307Y2359999D01*
G01X4540002Y2359999D01*
G01X4960003Y2359999D02*
G01X4874305Y2359999D01*
G01X4750003Y2359999D01*
G01X4540002Y2359999D02*
G01X4540002Y2270002D01*
G01X4750003Y2160744D02*
G01X4750003Y2040002D01*
G01X4750003Y2160744D02*
G01X4870003Y2160744D01*
G01X4750003Y2160744D02*
G01X4630002Y2160744D01*
G01X4960003Y2359999D02*
G01X5050005Y2359999D01*
G01X4960003Y2359999D02*
G01X4960003Y2280002D01*
G01X4260005Y2590002D02*
G01X4340002Y2590002D01*
G01X4340002Y2400002D01*
G01X3600002Y2590000D02*
G01X3600002Y2500002D01*
G01X4699982Y3100003D02*
G01X4830002Y3100003D01*
G01X4860003Y3070002D01*
G01X4690003Y2660002D02*
G01X4750003Y2600002D01*
G01X4319998Y2920019D02*
G01X4319998Y2790578D01*
G01X4450574Y2660002D01*
G01X4690003Y2660002D01*
G01X4419998Y2920019D02*
G01X4419998Y2761147D01*
G01X4471243Y2709902D01*
G01X4900103Y2709902D01*
G01X4960003Y2650002D01*
G01X4960003Y2500004D01*
G01X4469985Y2920019D02*
G01X4469985Y2810020D01*
G01X4520203Y2759802D01*
G01X4809802Y2759802D01*
G01X4860003Y2810002D01*
G01X4860003Y3070002D01*
G01X4119998Y4200009D02*
G01X4119998Y4029999D01*
G01X4094583Y4225425D02*
G01X4069986Y4200828D01*
G01X4069986Y4250022D02*
G01X4094583Y4225425D01*
G01X4119998Y4200009D01*
G01X4069986Y4200828D02*
G01X4069986Y4250022D01*
G01X4069986Y4200828D02*
G01X4069986Y4029999D01*
G01X3969986Y4029999D02*
G01X3969986Y3899986D01*
G01X2150001Y2270002D02*
G01X2259999Y2270002D01*
G01X2065338Y2080002D02*
G01X2065338Y2185338D01*
G01X2150001Y2270002D01*
G01X2260001Y2269999D02*
G01X2369997Y2269999D01*
G01X2629999Y2269999D01*
G54D10*
G01X2260004Y2599997D02*
G01X2369999Y2599997D01*
G01X2150004Y2600000D02*
G01X2260001Y2600000D01*
G01X2260004Y2929997D02*
G01X2369999Y2929997D01*
G01X2150004Y2930000D02*
G01X2260001Y2930000D01*
G01X2260004Y3259997D02*
G01X2369999Y3259997D01*
G01X2150004Y3260000D02*
G01X2260001Y3260000D01*
G01X2260004Y3589998D02*
G01X2369999Y3589998D01*
G01X2150004Y3590000D02*
G01X2260001Y3590000D01*
G01X2260004Y3919998D02*
G01X2369999Y3919998D01*
G01X2150004Y3920000D02*
G01X2260001Y3920000D01*
G01X2260004Y4249998D02*
G01X2369999Y4249998D01*
G01X2150004Y4250000D02*
G01X2260001Y4250000D01*
G01X2260004Y4579998D02*
G01X2369999Y4579998D01*
G01X2150004Y4580000D02*
G01X2260001Y4580000D01*
G54D36*
G01X4369985Y4029999D02*
G01X4369985Y4174213D01*
G01X4419998Y4029999D02*
G01X4419998Y4153657D01*
G01X4470097Y4030111D02*
G01X4470097Y4133188D01*
G01X4537013Y4200103D01*
G01X4369985Y4174213D02*
G01X4530002Y4334231D01*
G01X3919999Y4140006D02*
G01X3919999Y4029999D01*
G01X3810000Y4370003D02*
G01X3810000Y4350004D01*
G01X4019999Y4140008D01*
G01X4019999Y4029999D01*
G01X3630002Y4260003D02*
G01X3800002Y4260003D01*
G01X3919999Y4140006D01*
G01X3768864Y4180003D02*
G01X3630002Y4180003D01*
G01X3819999Y4128868D02*
G01X3768864Y4180003D01*
G01X3819999Y4029999D02*
G01X3819999Y4128868D01*
G01X4699982Y3850014D02*
G01X4860016Y3850014D01*
G01X4970003Y3960000D01*
G01X4769998Y4029999D02*
G01X4840005Y4100005D01*
G01X4620000Y4353659D02*
G01X4620000Y4380003D01*
G01X4419998Y4153657D02*
G01X4620000Y4353659D01*
G01X4537013Y4200103D02*
G01X4690103Y4200103D01*
G01X4760005Y4270005D01*
G01X4760005Y4380003D01*
G01X4840005Y4100005D02*
G01X4868008Y4100005D01*
G01X4970003Y4100005D01*
G01X4519998Y4029999D02*
G01X4586643Y4029999D01*
G01X4620002Y4380005D02*
G01X4620002Y4480000D01*
G01X4319998Y4029999D02*
G01X4319998Y4194795D01*
G01X4440002Y4314800D02*
G01X4440002Y4380003D01*
G01X4440002Y4460003D01*
G01X4319998Y4194795D02*
G01X4440002Y4314800D01*
G01X4219998Y4689996D02*
G01X4219998Y4029999D01*
G01X4300000Y4245366D02*
G01X4300000Y4380003D01*
G01X4270098Y4030111D02*
G01X4270098Y4215464D01*
G01X4300000Y4245366D01*
G01X2983596Y6471896D02*
G01X2980803Y6474690D01*
G01X2688592Y6364698D02*
G01X2688592Y6281414D01*
G01X2710630Y6259376D02*
G01X2983596Y6259376D01*
G01X2983596Y6144699D02*
G01X2983596Y6259376D01*
G01X2983596Y6471896D01*
G01X2688592Y6281414D02*
G01X2710630Y6259376D01*
G54D10*
G01X2593596Y6094696D02*
G01X2593596Y5844690D01*
G01X2593596Y5684689D01*
G54D36*
G01X3386390Y6474690D02*
G01X3386390Y6197483D01*
G01X3313596Y6124690D01*
G54D10*
G01X3440002Y5780004D02*
G01X3440002Y6130004D01*
G01X3344688Y5684689D02*
G01X3440002Y5780004D01*
G01X2744269Y5684689D02*
G01X3344688Y5684689D01*
G54D36*
G01X2688592Y6094696D02*
G01X2688592Y6135470D01*
G01X2593596Y6230466D02*
G01X2593596Y6364698D01*
G01X2688592Y6135470D02*
G01X2593596Y6230466D01*
G01X2783588Y6094696D02*
G01X2873589Y6004695D01*
G01X2983596Y6004695D01*
G01X3233596Y5844690D02*
G01X3313596Y5924690D01*
G01X2744269Y5844690D02*
G01X2744269Y5935737D01*
G01X2744269Y5844690D02*
G01X2836478Y5844690D01*
G01X3313596Y5924690D02*
G01X3313596Y5813598D01*
G01X3313596Y5924690D02*
G01X3268283Y5970004D01*
G01X3200002Y5970004D01*
G54D37*
G01X1585007Y7390081D02*
G01X1585007Y7007976D01*
G01X1771489Y6821494D01*
G01X1981489Y6821494D02*
G01X2221489Y6821494D01*
G54D38*
G01X2593596Y6564688D02*
G01X2593596Y6364698D01*
G01X2593596Y6736364D02*
G01X2508465Y6821494D01*
G01X2593596Y6564690D02*
G01X2593596Y6736364D01*
G01X2593596Y6821494D02*
G01X2593596Y6736364D01*
G54D37*
G01X2508465Y6821494D02*
G01X2593596Y6821494D01*
G54D38*
G01X2593596Y6736364D02*
G01X2678726Y6821494D01*
G54D37*
G01X2593596Y6821494D02*
G01X2678726Y6821494D01*
G54D38*
G01X4728466Y6821494D02*
G01X4813597Y6736364D01*
G01X4813597Y6821494D01*
G54D37*
G01X4813597Y6821494D02*
G01X4728466Y6821494D01*
G01X2678726Y6821494D01*
G54D36*
G01X2733599Y6564690D02*
G01X2733599Y6660004D01*
G01X2733599Y6564690D02*
G01X2783588Y6564690D01*
G01X2820001Y6564690D01*
G01X2783588Y6364698D02*
G01X2783588Y6463501D01*
G01X2783588Y6564690D01*
G54D10*
G01X4300000Y4790005D02*
G01X4300000Y4380003D01*
G54D36*
G01X4070000Y4710003D02*
G01X3970002Y4710003D01*
G01X4070002Y4710005D02*
G01X4070002Y4810003D01*
G01X4070000Y4710003D02*
G01X4070000Y4540003D01*
G01X4169986Y4029999D02*
G01X4169986Y4290020D01*
G01X4069986Y4250022D02*
G01X4015229Y4304779D01*
G01X3950005Y4370003D01*
G01X4169986Y4290020D02*
G01X3910002Y4550003D01*
G01X3855262Y4550003D02*
G01X3810000Y4595265D01*
G01X3910002Y4550003D02*
G01X3855262Y4550003D01*
G01X3810000Y4550003D02*
G01X3855262Y4550003D01*
G54D10*
G01X3810000Y4550003D02*
G01X3810000Y4595265D01*
G54D36*
G01X3855262Y4550003D02*
G01X3810000Y4504741D01*
G54D10*
G01X3810000Y4370003D02*
G01X3810000Y4504741D01*
G01X3810000Y4550003D01*
G01X4207703Y4882303D02*
G01X4300000Y4790005D01*
G01X3730002Y6130004D02*
G01X3440002Y6130004D01*
G01X3810000Y6050006D02*
G01X3730002Y6130004D01*
G01X4970003Y3960000D02*
G01X5000000Y3960000D01*
G01X5120003Y4080003D01*
G54D36*
G01X4530002Y4334231D02*
G01X4530002Y4530003D01*
G01X4600002Y4600003D01*
G01X5068842Y4600003D02*
G01X5120003Y4651164D01*
G01X4600002Y4600003D02*
G01X5068842Y4600003D01*
G01X5120003Y4600003D02*
G01X5068842Y4600003D01*
G54D10*
G01X5120003Y4651164D02*
G01X5120003Y4600003D01*
G54D36*
G01X5068842Y4600003D02*
G01X5120003Y4548842D01*
G54D10*
G01X5120003Y4548842D02*
G01X5120003Y4600003D01*
G01X5051197Y4380003D02*
G01X5120003Y4448809D01*
G01X5120003Y4380003D02*
G01X5051197Y4380003D01*
G01X4760005Y4380003D01*
G01X5120003Y4380003D02*
G01X5120003Y4448809D01*
G01X5120003Y4548842D01*
G01X5051197Y4380003D02*
G01X5120003Y4311197D01*
G01X5120003Y4080003D02*
G01X5120003Y4311197D01*
G01X5120003Y4380003D01*
G01X3865971Y4882303D02*
G01X3810000Y4938274D01*
G01X3810000Y4882303D02*
G01X3865971Y4882303D01*
G01X4207703Y4882303D01*
G01X3810000Y4882303D02*
G01X3810000Y4938274D01*
G01X3810000Y6050006D01*
G01X3865971Y4882303D02*
G01X3810000Y4826332D01*
G01X3810000Y4595265D02*
G01X3810000Y4826332D01*
G01X3810000Y4882303D01*
G54D36*
G01X2065338Y2410002D02*
G01X2259999Y2410002D01*
G01X2065338Y2740002D02*
G01X2259999Y2740002D01*
G01X2065338Y3070002D02*
G01X2259999Y3070002D01*
G01X4169986Y4029999D02*
G01X4169986Y3569986D01*
G01X3969986Y3369986D02*
G01X3969986Y2920019D01*
G01X4019999Y3599999D02*
G01X4019999Y4029999D01*
G01X3869986Y3449986D02*
G01X4019999Y3599999D01*
G01X3869986Y2920019D02*
G01X3869986Y3449986D01*
G01X4169986Y3569986D02*
G01X3969986Y3369986D01*
G01X4019999Y2920019D02*
G01X4019999Y3289999D01*
G01X4269985Y3539986D02*
G01X4269985Y4029999D01*
G01X4019999Y3289999D02*
G01X4269985Y3539986D01*
G01X3919999Y2920019D02*
G01X3919999Y3399999D01*
G01X4119998Y3599999D02*
G01X4119998Y4029999D01*
G01X4069986Y4029999D02*
G01X4069986Y3549986D01*
G01X4119998Y3599999D01*
G01X3919999Y3399999D02*
G01X4069986Y3549986D01*
G54D39*
G01X3600002Y2730004D02*
G01X3502166Y2730004D01*
G01X3457194Y2685032D01*
G01X3457194Y2486912D01*
G01X3505374Y2438732D01*
G01X3718730Y2438732D01*
G01X3810000Y2530002D01*
G54D36*
G01X4908593Y6364692D02*
G01X4908593Y6281408D01*
G01X4930631Y6259369D02*
G01X5203597Y6259369D01*
G01X4908593Y6281408D02*
G01X4930631Y6259369D01*
G54D10*
G01X4813597Y6094690D02*
G01X4813597Y5844684D01*
G01X4813597Y5684683D01*
G01X5564689Y5684683D02*
G01X4964269Y5684683D01*
G54D36*
G01X4908593Y6094690D02*
G01X4908593Y6135464D01*
G01X4813597Y6230460D02*
G01X4813597Y6364692D01*
G01X5003589Y6094690D02*
G01X5093590Y6004689D01*
G01X5203597Y6004689D01*
G01X4908593Y6135464D02*
G01X4813597Y6230460D01*
G01X4964269Y5844684D02*
G01X4964269Y5935731D01*
G01X5056479Y5844684D02*
G01X4964269Y5844684D01*
G01X4953599Y6564684D02*
G01X4953599Y6659998D01*
G01X5003589Y6564684D02*
G01X4953599Y6564684D01*
G01X5003589Y6564684D02*
G01X5040002Y6564684D01*
G01X5003589Y6364692D02*
G01X5003589Y6463495D01*
G01X5003589Y6564684D01*
G01X5203597Y6471890D02*
G01X5200804Y6474684D01*
G01X5203597Y6144693D02*
G01X5203597Y6259369D01*
G01X5203597Y6471890D01*
G01X5606391Y6474684D02*
G01X5606391Y6197477D01*
G01X5533597Y6124683D01*
G54D10*
G01X5660003Y5779998D02*
G01X5564689Y5684683D01*
G54D36*
G01X5453597Y5844684D02*
G01X5533597Y5924684D01*
G01X5533597Y5813592D01*
G01X5533597Y5924684D02*
G01X5488283Y5969998D01*
G01X5420003Y5969998D01*
G54D38*
G01X4813597Y6736364D02*
G01X4813597Y6564690D01*
G01X4813597Y6443428D01*
G01X4813597Y6564682D02*
G01X4813597Y6443428D01*
G01X4813597Y6364692D01*
G54D36*
G01X5056479Y5844684D02*
G01X5247418Y5844684D01*
G01X5453597Y5844684D01*
G54D10*
G01X5120003Y4651164D02*
G01X5120003Y4971919D01*
G01X6072378Y6007622D02*
G01X5960850Y6119150D01*
G01X5660003Y6119150D01*
G01X5660003Y5779998D01*
G01X5120003Y4971919D02*
G01X5269992Y5121908D01*
G01X5923788Y5121908D01*
G01X6072378Y5270498D01*
G01X6072378Y6007622D01*
G54D36*
G01X2260001Y2269999D02*
G01X2260001Y2181259D01*
G01X2158744Y2080002D01*
G01X2065338Y2080002D01*
G01X4953599Y6660000D02*
G01X4953599Y6564690D01*
G01X4814505Y7410004D02*
G01X4953599Y7270911D01*
G01X4953599Y6660000D01*
G01X4699982Y3500002D02*
G01X4534270Y3500002D01*
G01X2027970Y7410004D02*
G01X2403373Y7410004D01*
G01X1887476Y7550499D02*
G01X2027970Y7410004D01*
G54D37*
G01X1518794Y6621495D02*
G01X1771489Y6621495D01*
G01X1981489Y6621495D01*
G01X2208511Y6621495D01*
G01X2210001Y6620004D01*
G54D36*
G01X4586643Y4029999D02*
G01X4734545Y4029999D01*
G01X4769998Y4029999D01*
G54D39*
G01X4560002Y3100003D02*
G01X4699982Y3100003D01*
G01X4520002Y3140002D02*
G01X4560002Y3100003D01*
G01X1771489Y6621495D02*
G01X1770001Y6620007D01*
G01X1980001Y6620007D02*
G01X1981489Y6621495D01*
G01X1267509Y7235675D02*
G01X1264531Y7232696D01*
G01X1432016Y7232696D01*
G01X1433505Y7231207D01*
G01X1434995Y7547520D02*
G01X1436484Y7549010D01*
G01X1433505Y7391418D02*
G01X1434995Y7389928D01*
G01X1266020Y7391418D02*
G01X1267509Y7391418D01*
G01X1433505Y7391418D01*
G01X1267509Y7550499D02*
G01X1267509Y7391418D01*
G01X1267509Y7235675D01*
G54D37*
G01X1434995Y7594999D02*
G01X1570001Y7730005D01*
G01X2310001Y7730005D02*
G01X2403373Y7636633D01*
G01X2403373Y7410004D01*
G01X1434995Y7389928D02*
G01X1434995Y7547520D01*
G01X1434995Y7550499D01*
G01X1434995Y7594999D01*
G54D36*
G01X1267509Y7550499D02*
G01X1434995Y7550499D01*
G01X1887476Y7550499D01*
G54D37*
G01X1570001Y7730005D02*
G01X2310001Y7730005D01*
G54D39*
G01X4519998Y2920019D02*
G01X4519998Y3030007D01*
G01X4440002Y3110002D01*
G01X4110002Y3110002D02*
G01X4069986Y3069986D01*
G01X4069986Y2920019D01*
G01X4169986Y2920019D02*
G01X4169986Y3110002D01*
G01X4440002Y3110002D02*
G01X4169986Y3110002D01*
G01X4110002Y3110002D01*
G01X4319998Y4029999D02*
G01X4319998Y3389998D01*
G01X4169986Y3239986D02*
G01X4169986Y3110002D01*
G01X4419998Y4029999D02*
G01X4419998Y3890007D01*
G01X4440002Y3870003D01*
G01X4500002Y3870003D02*
G01X4519998Y3889998D01*
G01X4519998Y4029999D01*
G01X4440002Y3870003D02*
G01X4469300Y3870003D01*
G01X4500002Y3870003D01*
G01X4469300Y3564974D02*
G01X4534270Y3500005D01*
G01X4469300Y3870003D02*
G01X4469300Y3564974D01*
G01X4534270Y3500005D02*
G01X4534270Y3154272D01*
G01X4520002Y3140005D01*
G54D36*
G01X3178516Y7410004D02*
G01X3940671Y7410004D01*
G01X4702826Y7410004D01*
G01X4814505Y7410004D01*
G54D37*
G01X1434995Y6705294D02*
G01X1518794Y6621495D01*
G01X1434995Y7389928D02*
G01X1434995Y6705294D01*
G54D36*
G01X2836478Y5844690D02*
G01X3029487Y5844690D01*
G01X3233596Y5844690D01*
G54D39*
G01X4319998Y3389998D02*
G01X4222380Y3292379D01*
G01X4169986Y3239986D01*
G54D36*
G01X3969986Y3899986D02*
G01X3929999Y3860000D01*
G01X3920002Y3860000D01*
G01X3869899Y3910102D01*
G01X3869899Y4029912D01*
G54D37*
G01X1771489Y6821494D02*
G01X1981489Y6821494D01*
G01X2221489Y6821494D02*
G01X2508465Y6821494D01*
G54D36*
G01X3016630Y7410004D02*
G01X3178516Y7410004D01*
G54D39*
G01X1770001Y6620007D02*
G01X1980001Y6620007D01*
G01X3180002Y7330004D02*
G01X3016630Y7330004D01*
G01X3016630Y7410004D01*
G04 Track End*

M02*

